<?xml version="1.0" encoding="UTF-8"?>
<svg id="Layer_2" data-name="Layer 2" xmlns="http://www.w3.org/2000/svg" xmlns:xlink="http://www.w3.org/1999/xlink" viewBox="0 0 344.71 83.62">
  <defs>
    <style>
      .cls-1 {
        fill: url(#linear-gradient-2);
      }

      .cls-2 {
        fill: url(#linear-gradient-14);
      }

      .cls-3 {
        fill: url(#linear-gradient-6);
      }

      .cls-4 {
        fill: #727272;
        font-family: AnconaExBold, Ancona-Ex;
        font-size: 25.36px;
      }

      .cls-5 {
        fill: url(#linear-gradient-11);
      }

      .cls-6 {
        fill: url(#linear-gradient-10);
      }

      .cls-7 {
        fill: url(#linear-gradient-5);
      }

      .cls-8 {
        fill: url(#linear-gradient-7);
      }

      .cls-9 {
        fill: url(#linear-gradient-9);
      }

      .cls-10 {
        fill: url(#linear-gradient-3);
      }

      .cls-11 {
        fill: url(#linear-gradient);
      }

      .cls-12 {
        fill: url(#linear-gradient-4);
      }

      .cls-13 {
        fill: url(#linear-gradient-8);
      }

      .cls-14 {
        fill: url(#linear-gradient-12);
      }

      .cls-15 {
        fill: url(#linear-gradient-13);
      }
    </style>
    <linearGradient id="linear-gradient" x1="1.43" y1="29.59" x2="338.85" y2="29.59" gradientUnits="userSpaceOnUse">
      <stop offset="0" stop-color="#2fa3d4"/>
      <stop offset="1" stop-color="#0eba08"/>
    </linearGradient>
    <linearGradient id="linear-gradient-2" y1="6.22" y2="6.22" xlink:href="#linear-gradient"/>
    <linearGradient id="linear-gradient-3" y1="29.59" y2="29.59" xlink:href="#linear-gradient"/>
    <linearGradient id="linear-gradient-4" y1="24.32" y2="24.32" xlink:href="#linear-gradient"/>
    <linearGradient id="linear-gradient-5" y1="29.59" y2="29.59" xlink:href="#linear-gradient"/>
    <linearGradient id="linear-gradient-6" y1="34.83" y2="34.83" xlink:href="#linear-gradient"/>
    <linearGradient id="linear-gradient-7" y1="25.46" y2="25.46" xlink:href="#linear-gradient"/>
    <linearGradient id="linear-gradient-8" y1="29.59" y2="29.59" xlink:href="#linear-gradient"/>
    <linearGradient id="linear-gradient-9" y1="29.32" y2="29.32" xlink:href="#linear-gradient"/>
    <linearGradient id="linear-gradient-10" y1="29.59" y2="29.59" xlink:href="#linear-gradient"/>
    <linearGradient id="linear-gradient-11" y1="24.55" y2="24.55" xlink:href="#linear-gradient"/>
    <linearGradient id="linear-gradient-12" y1="30.12" y2="30.12" xlink:href="#linear-gradient"/>
    <linearGradient id="linear-gradient-13" y1="30.12" y2="30.12" xlink:href="#linear-gradient"/>
    <linearGradient id="linear-gradient-14" y1="30.12" y2="30.12" xlink:href="#linear-gradient"/>
  </defs>
  <g id="Layer_1-2" data-name="Layer 1">
    <g>
      <text class="cls-4" transform="translate(0 77.28)"><tspan x="0" y="0">TEXT TO SOFTWARE</tspan></text>
      <g>
        <g>
          <rect class="cls-11" x="44.95" y="14.81" width="12.21" height="29.56"/>
          <path class="cls-1" d="M56.4,1.68c-1.33-1.12-3.12-1.68-5.35-1.68s-3.97,.59-5.32,1.76c-1.35,1.17-2.03,2.66-2.03,4.46s.68,3.29,2.03,4.46c1.35,1.17,3.12,1.76,5.32,1.76s4.02-.6,5.35-1.81c1.33-1.21,2-2.75,2-4.62,0-1.77-.67-3.21-2-4.32Z"/>
          <path class="cls-10" d="M87.7,17.75c-2.74-2.32-6.7-3.49-11.89-3.49-2.38,0-4.77,.3-7.16,.89-2.4,.59-4.44,1.41-6.13,2.46l3.89,8.05c.97-.72,2.14-1.29,3.51-1.7,1.37-.41,2.72-.62,4.05-.62,3.32,0,5.17,1.15,5.57,3.46h-4.92c-4.54,0-7.93,.76-10.16,2.27-2.24,1.51-3.35,3.73-3.35,6.65,0,1.73,.42,3.29,1.27,4.67,.85,1.39,2.09,2.49,3.73,3.3,1.64,.81,3.63,1.22,5.97,1.22,4.18,0,6.97-1.48,8.38-4.43v3.89h11.35v-15.89c0-4.83-1.37-8.4-4.11-10.73Zm-8.11,17c-.32,.94-.83,1.64-1.51,2.11-.69,.47-1.46,.7-2.32,.7s-1.61-.23-2.13-.68c-.52-.45-.78-1.02-.78-1.7,0-1.66,1.24-2.49,3.73-2.49h3.03v2.05Z"/>
          <rect class="cls-12" x="97.1" y="4.27" width="12.21" height="40.1"/>
          <path class="cls-7" d="M139.23,16.21c-2.61-1.3-5.58-1.95-8.89-1.95s-6.22,.65-8.84,1.95c-2.61,1.3-4.66,3.11-6.13,5.43-1.48,2.32-2.22,4.96-2.22,7.92s.74,5.59,2.22,7.92c1.48,2.32,3.52,4.14,6.13,5.46,2.61,1.32,5.56,1.97,8.84,1.97s6.28-.66,8.89-1.97c2.61-1.31,4.65-3.13,6.11-5.46,1.46-2.32,2.19-4.96,2.19-7.92s-.73-5.59-2.19-7.92c-1.46-2.32-3.5-4.13-6.11-5.43Zm-5.43,17.65c-.9,1.03-2.05,1.54-3.46,1.54s-2.56-.51-3.46-1.54c-.9-1.03-1.35-2.46-1.35-4.3s.45-3.26,1.35-4.27c.9-1.01,2.05-1.51,3.46-1.51s2.56,.5,3.46,1.51c.9,1.01,1.35,2.43,1.35,4.27s-.45,3.27-1.35,4.3Z"/>
          <path class="cls-3" d="M172.77,18.16c-1.8-2.59-4.72-3.89-8.76-3.89-2.52,0-4.87,.59-7.05,1.76-2.18,1.17-3.92,2.84-5.22,5-1.3,2.16-1.95,4.65-1.95,7.46s.65,5.31,1.95,7.49c1.3,2.18,3.04,3.86,5.22,5.03,2.18,1.17,4.53,1.76,7.05,1.76,3.6,0,6.32-1.04,8.16-3.13v.54c0,2.02-.56,3.55-1.68,4.59-1.12,1.04-2.9,1.57-5.35,1.57-1.62,0-3.32-.27-5.08-.81-1.77-.54-3.23-1.24-4.38-2.11l-4.11,8.32c1.8,1.19,3.98,2.1,6.54,2.73,2.56,.63,5.31,.95,8.27,.95,5.76,0,10.21-1.41,13.32-4.24,3.12-2.83,4.67-7.05,4.67-12.67V14.81h-11.62v3.35Zm-1.92,13.76c-.96,.88-2.15,1.32-3.59,1.32s-2.65-.44-3.62-1.32c-.97-.88-1.46-2.03-1.46-3.43s.48-2.54,1.43-3.4c.95-.87,2.17-1.3,3.65-1.3s2.64,.43,3.59,1.3c.95,.86,1.43,2,1.43,3.4s-.48,2.55-1.43,3.43Z"/>
          <polygon class="cls-8" points="238.55 6.54 231.57 28.32 224.98 6.54 213.25 6.54 206.28 28.05 199.68 6.54 186.55 6.54 198.66 44.37 212.33 44.37 218.76 24.16 224.87 44.37 238.55 44.37 250.65 6.54 238.55 6.54"/>
          <path class="cls-13" d="M276.06,17.75c-2.74-2.32-6.7-3.49-11.89-3.49-2.38,0-4.77,.3-7.16,.89-2.4,.59-4.44,1.41-6.13,2.46l3.89,8.05c.97-.72,2.14-1.29,3.51-1.7,1.37-.41,2.72-.62,4.05-.62,3.31,0,5.17,1.15,5.57,3.46h-4.92c-4.54,0-7.93,.76-10.16,2.27-2.23,1.51-3.35,3.73-3.35,6.65,0,1.73,.42,3.29,1.27,4.67,.85,1.39,2.09,2.49,3.73,3.3s3.63,1.22,5.97,1.22c4.18,0,6.97-1.48,8.38-4.43v3.89h11.35v-15.89c0-4.83-1.37-8.4-4.11-10.73Zm-8.11,17c-.32,.94-.83,1.64-1.51,2.11-.68,.47-1.46,.7-2.32,.7s-1.61-.23-2.13-.68-.78-1.02-.78-1.7c0-1.66,1.24-2.49,3.73-2.49h3.03v2.05Z"/>
          <path class="cls-9" d="M297.08,18v-3.19h-11.62v29.56h12.21v-13.13c0-4.25,2.09-6.38,6.27-6.38,.83,0,1.73,.07,2.7,.22V14.27c-4.22,0-7.41,1.24-9.57,3.73Z"/>
          <path class="cls-6" d="M341.29,29.56c0-3.21-.73-5.96-2.19-8.27-1.46-2.31-3.42-4.05-5.89-5.24-2.47-1.19-5.2-1.78-8.19-1.78-3.17,0-6.03,.65-8.57,1.95-2.54,1.3-4.54,3.11-6,5.43-1.46,2.32-2.19,4.96-2.19,7.92s.74,5.55,2.22,7.89c1.48,2.34,3.57,4.17,6.27,5.49,2.7,1.32,5.84,1.97,9.41,1.97,5.73,0,10.03-1.58,12.92-4.76l-6.38-6.43c-1.04,.79-2.01,1.35-2.89,1.68s-1.97,.49-3.27,.49c-1.51,0-2.78-.3-3.78-.89-1.01-.59-1.73-1.45-2.16-2.57h20.54c.11-1.73,.16-2.68,.16-2.86Zm-20.92-3.03c.25-1.26,.79-2.23,1.62-2.92,.83-.68,1.87-1.03,3.13-1.03s2.31,.35,3.13,1.05c.83,.7,1.37,1.67,1.62,2.89h-9.51Z"/>
        </g>
        <g>
          <path class="cls-5" d="M19.83,4.72H0V44.37H19.83c10.95,0,19.83-8.88,19.83-19.83h0c0-10.95-8.88-19.83-19.83-19.83Zm6.61,25.4c0,6.73-5.45,12.18-12.18,12.18H2.08v-12.18c0-6.73,5.45-12.18,12.18-12.18h0c6.73,0,12.18,5.45,12.18,12.18h0Z"/>
          <g>
            <circle class="cls-14" cx="9.73" cy="30.12" r="1.56"/>
            <circle class="cls-15" cx="14.26" cy="30.12" r="1.56"/>
            <circle class="cls-2" cx="18.79" cy="30.12" r="1.56"/>
          </g>
        </g>
      </g>
    </g>
  </g>
</svg>