<?xml version="1.0" encoding="UTF-8"?>
<svg id="Layer_2" data-name="Layer 2" xmlns="http://www.w3.org/2000/svg" viewBox="0 0 439.94 428.47">
  <defs>
    <style>
      .cls-1 {
        fill: #1c1c1c;
      }
    </style>
  </defs>
  <g id="Layer_1-2" data-name="Layer 1">
    <g>
      <g>
        <path class="cls-1" d="M0,87.17c0-14.89,3.01-26.76,9.02-35.59,6.01-8.83,14.24-13.25,24.68-13.25,8.37,0,15.29,3.47,20.75,10.42V0h23.05V135.65h-20.74l-1.11-10.16c-5.72,7.95-13.09,11.92-22.1,11.92-10.12,0-18.24-4.43-24.36-13.29C3.06,115.26,0,102.95,0,87.17Zm22.97,1.9c0,8.96,1.4,15.83,4.21,20.61,2.81,4.78,6.89,7.17,12.24,7.17,7.1,0,12.11-3.33,15.02-10v-37.77c-2.86-6.66-7.82-9.99-14.86-9.99-11.08,0-16.61,9.99-16.61,29.98Z"/>
        <path class="cls-1" d="M95.14,15.37c0-3.83,1.15-6.98,3.46-9.45s5.44-3.71,9.42-3.71,7.05,1.24,9.38,3.71c2.33,2.47,3.5,5.62,3.5,9.45s-1.18,7.07-3.54,9.54c-2.36,2.47-5.47,3.71-9.34,3.71s-6.98-1.24-9.34-3.71c-2.36-2.47-3.54-5.65-3.54-9.54Zm24.4,120.28h-23.05V40.09h23.05v95.56Z"/>
        <path class="cls-1" d="M188.29,135.65c-1.06-2.3-1.83-5.15-2.3-8.57-5.56,6.89-12.8,10.33-21.7,10.33-8.42,0-15.41-2.71-20.94-8.12-5.54-5.42-8.31-12.25-8.31-20.49,0-10.13,3.38-17.9,10.13-23.31s16.52-8.15,29.29-8.21h10.57v-5.48c0-4.42-1.02-7.95-3.06-10.6-2.04-2.65-5.26-3.97-9.66-3.97-3.87,0-6.9,1.03-9.1,3.09-2.2,2.06-3.3,4.89-3.3,8.48h-22.97c0-5.53,1.54-10.66,4.61-15.37,3.07-4.71,7.42-8.4,13.04-11.08,5.62-2.68,11.92-4.02,18.92-4.02,10.6,0,19.01,2.96,25.24,8.88,6.23,5.92,9.34,14.23,9.34,24.95v41.42c.05,9.07,1.19,15.93,3.42,20.58v1.5h-23.21Zm-19-17.75c3.39,0,6.52-.84,9.38-2.52,2.86-1.68,4.98-3.93,6.36-6.76v-16.43h-8.58c-11.5,0-17.62,4.42-18.36,13.25l-.08,1.5c0,3.18,1.01,5.8,3.02,7.86,2.01,2.06,4.77,3.09,8.27,3.09Z"/>
        <path class="cls-1" d="M249.97,135.65h-23.05V0h23.05V135.65Z"/>
        <path class="cls-1" d="M265.31,86.99c0-9.48,1.64-17.93,4.93-25.35,3.29-7.42,8.01-13.16,14.19-17.22,6.17-4.06,13.34-6.09,21.5-6.09,11.6,0,21.08,3.95,28.42,11.83,7.34,7.89,11.43,18.61,12.28,32.15l.16,6.54c0,14.66-3.68,26.42-11.05,35.28-7.37,8.86-17.25,13.29-29.65,13.29s-22.29-4.42-29.69-13.25c-7.39-8.83-11.09-20.84-11.09-36.03v-1.15Zm22.97,1.81c0,9.08,1.54,16.03,4.61,20.83,3.07,4.81,7.47,7.21,13.19,7.21s9.91-2.37,13.04-7.12c3.13-4.75,4.69-12.34,4.69-22.78,0-8.9-1.56-15.8-4.69-20.7-3.13-4.89-7.52-7.34-13.19-7.34s-9.96,2.43-13.04,7.3c-3.07,4.87-4.61,12.4-4.61,22.6Z"/>
        <path class="cls-1" d="M357.59,87.17c0-14.66,3.14-26.46,9.42-35.41,6.28-8.95,14.74-13.42,25.39-13.42,9.43,0,16.77,3.59,22.02,10.77l.95-9.01h20.82v92.38c0,8.36-1.71,15.63-5.13,21.81-3.42,6.18-8.23,10.89-14.43,14.13-6.2,3.24-13.46,4.86-21.78,4.86-6.31,0-12.45-1.4-18.44-4.2-5.99-2.8-10.52-6.4-13.59-10.82l10.17-15.54c5.72,7.12,12.66,10.69,20.82,10.69,6.09,0,10.84-1.81,14.23-5.43,3.39-3.62,5.09-8.76,5.09-15.41v-5.12c-5.3,6.65-12.27,9.98-20.9,9.98-10.33,0-18.69-4.49-25.08-13.47-6.39-8.98-9.58-20.89-9.58-35.72v-1.06Zm22.97,1.9c0,8.67,1.56,15.46,4.69,20.39,3.13,4.92,7.42,7.39,12.88,7.39,6.99,0,12-2.92,15.02-8.76v-40.24c-3.07-5.84-8.03-8.76-14.86-8.76-5.51,0-9.84,2.51-13,7.52-3.15,5.01-4.73,12.5-4.73,22.46Z"/>
      </g>
      <g>
        <path class="cls-1" d="M104.2,282.68l14.3-77.12h28.1l-27.8,121.1h-24.38l-20.65-76.22-20.65,76.22H28.85L1.05,205.57H29.16l14.2,77,19.95-77h21.05l19.84,77.12Z"/>
        <path class="cls-1" d="M224.17,326.67c-1.34-2.91-2.32-6.53-2.92-10.86-7.05,8.73-16.22,13.09-27.5,13.09-10.68,0-19.53-3.43-26.54-10.3-7.02-6.86-10.53-15.52-10.53-25.97,0-12.83,4.28-22.68,12.84-29.55,8.56-6.86,20.93-10.33,37.12-10.41h13.4v-6.94c0-5.6-1.29-10.07-3.88-13.43-2.59-3.36-6.67-5.04-12.24-5.04-4.9,0-8.75,1.31-11.53,3.92-2.79,2.61-4.18,6.19-4.18,10.75h-29.11c0-7.01,1.95-13.5,5.84-19.47,3.89-5.97,9.4-10.65,16.52-14.05,7.12-3.39,15.11-5.09,23.97-5.09,13.43,0,24.09,3.75,31.98,11.25,7.89,7.5,11.84,18.04,11.84,31.62v52.49c.07,11.49,1.51,20.19,4.33,26.08v1.9h-29.41Zm-24.07-22.5c4.3,0,8.26-1.06,11.89-3.19,3.63-2.13,6.31-4.98,8.06-8.56v-20.82h-10.88c-14.57,0-22.33,5.6-23.27,16.79l-.1,1.9c0,4.03,1.28,7.35,3.83,9.96,2.55,2.61,6.04,3.92,10.48,3.92Z"/>
        <path class="cls-1" d="M332.86,235.9c-3.96-.6-7.45-.9-10.48-.9-11.01,0-18.23,4.14-21.66,12.42v79.24h-29.11v-121.1h27.5l.81,14.44c5.84-11.12,13.93-16.68,24.28-16.68,3.22,0,6.25,.49,9.07,1.46l-.4,31.12Z"/>
        <path class="cls-1" d="M395.12,328.91c-15.98,0-29-5.45-39.03-16.34-10.04-10.89-15.06-25.41-15.06-43.54v-3.13c0-12.16,2.12-23.04,6.35-32.62s10.22-16.97,17.98-22.16c7.76-5.19,16.6-7.78,26.54-7.78,14.91,0,26.64,5.22,35.21,15.67,8.56,10.45,12.84,25.26,12.84,44.43v13.21h-69.4c.94,7.91,3.78,14.25,8.51,19.03,4.73,4.78,10.73,7.16,17.98,7.16,11.21,0,19.98-4.51,26.29-13.54l14.3,17.8c-4.37,6.87-10.27,12.22-17.73,16.06-7.45,3.84-15.71,5.76-24.78,5.76Zm-3.32-99.5c-5.78,0-10.46,2.17-14.05,6.52-3.59,4.35-5.89,10.57-6.9,18.66h40.49v-2.59c-.14-7.19-1.88-12.76-5.24-16.69-3.36-3.93-8.13-5.9-14.3-5.9Z"/>
      </g>
      <g>
        <path class="cls-1" d="M397.22,386.14h-5.04v10.14h5.06c1.57,0,2.79-.44,3.66-1.33,.86-.89,1.29-2.12,1.29-3.68s-.41-2.85-1.22-3.76c-.82-.91-2.07-1.37-3.75-1.37Z"/>
        <polygon class="cls-1" points="363.5 401.7 371.11 401.7 367.28 389.05 363.5 401.7"/>
        <path class="cls-1" d="M175.43,385.8c-2.1,0-3.73,.91-4.87,2.73-1.14,1.82-1.72,4.48-1.73,8v1.65c0,3.45,.57,6.13,1.71,8.03,1.14,1.9,2.79,2.86,4.93,2.86s3.72-.92,4.85-2.75c1.13-1.83,1.7-4.51,1.71-8.02v-1.65c0-3.54-.57-6.24-1.71-8.08-1.14-1.84-2.77-2.76-4.89-2.76Z"/>
        <path class="cls-1" d="M244.94,385.8c-2.1,0-3.73,.91-4.87,2.73-1.14,1.82-1.72,4.48-1.73,8v1.65c0,3.45,.57,6.13,1.71,8.03,1.14,1.9,2.79,2.86,4.93,2.86s3.72-.92,4.85-2.75c1.13-1.83,1.7-4.51,1.71-8.02v-1.65c0-3.54-.57-6.24-1.71-8.08-1.14-1.84-2.77-2.76-4.89-2.76Z"/>
        <path class="cls-1" d="M.67,366.33v62.14H438.32v-62.14H.67Zm27.98,19.81h-9.32v28.16h-6.27v-28.16H3.87v-5.64H28.65v5.64Zm25.47,28.16h-20.39v-33.8h20.35v5.64h-14.08v8.05h12.03v5.46h-12.03v9.05h14.12v5.59Zm21.92,0l-5.85-11.84-5.85,11.84h-7.29l9.09-17.04-8.86-16.76h7.21l5.7,11.65,5.7-11.65h7.21l-8.86,16.76,9.09,17.04h-7.29Zm34.85-28.16h-9.32v28.16h-6.27v-28.16h-9.19v-5.64h24.78v5.64Zm48.03,0h-9.32v28.16h-6.27v-28.16h-9.19v-5.64h24.78v5.64Zm29.48,12.02c0,3.33-.53,6.24-1.59,8.75s-2.57,4.44-4.54,5.8c-1.97,1.36-4.23,2.04-6.78,2.04s-4.77-.67-6.75-2.02c-1.98-1.35-3.51-3.27-4.6-5.77-1.09-2.5-1.64-5.37-1.65-8.62v-1.67c0-3.33,.54-6.26,1.62-8.79,1.08-2.53,2.6-4.47,4.58-5.83,1.97-1.35,4.22-2.03,6.76-2.03s4.79,.68,6.76,2.03c1.97,1.35,3.5,3.3,4.58,5.83,1.08,2.53,1.62,5.45,1.62,8.76v1.51Zm24.14-5.9c1,.74,2.46,1.44,4.4,2.09,3.56,1.19,6.16,2.67,7.79,4.43,1.63,1.76,2.44,3.96,2.44,6.59,0,2.92-1,5.22-2.99,6.88-1.99,1.66-4.67,2.5-8.04,2.5-2.34,0-4.47-.48-6.39-1.43-1.92-.95-3.39-2.26-4.4-3.91-1.01-1.66-1.51-3.57-1.51-5.76h6.29c0,3.73,2.01,5.59,6.02,5.59,1.49,0,2.65-.34,3.49-1.01,.84-.67,1.25-1.61,1.25-2.82,0-1.32-.42-2.33-1.25-3.03-.83-.7-2.34-1.45-4.51-2.23s-3.89-1.55-5.16-2.31c-3.45-2.07-5.18-4.87-5.18-8.38,0-1.83,.46-3.46,1.39-4.89,.93-1.43,2.26-2.55,3.99-3.35,1.73-.8,3.68-1.21,5.84-1.21s4.11,.44,5.81,1.31c1.7,.88,3.02,2.11,3.96,3.7s1.41,3.4,1.41,5.43h-6.27c0-1.55-.44-2.75-1.32-3.61-.88-.86-2.11-1.29-3.7-1.29s-2.72,.36-3.57,1.08c-.85,.72-1.27,1.67-1.27,2.84,0,1.1,.5,2.02,1.49,2.76Zm45.37,5.9c0,3.33-.53,6.24-1.59,8.75s-2.57,4.44-4.54,5.8c-1.97,1.36-4.23,2.04-6.78,2.04s-4.77-.67-6.75-2.02c-1.98-1.35-3.51-3.27-4.6-5.77-1.09-2.5-1.64-5.37-1.65-8.62v-1.67c0-3.33,.54-6.26,1.62-8.79,1.08-2.53,2.6-4.47,4.58-5.83,1.97-1.35,4.22-2.03,6.76-2.03s4.79,.68,6.76,2.03c1.97,1.35,3.5,3.3,4.58,5.83,1.08,2.53,1.62,5.45,1.62,8.76v1.51Zm25.86-12.02h-13.54v8.73h12.03v5.62h-12.03v13.81h-6.27v-33.8h19.81v5.64Zm28.45,0h-9.32v28.16h-6.27v-28.16h-9.19v-5.64h24.78v5.64Zm32.67,28.16h-6.31l-4.95-22.61-4.95,22.61h-6.31l-6.75-33.8h6.25l4.12,24,5.01-24h5.31l4.99,24.05,4.09-24.05h6.25l-6.75,33.8Zm30.02,0l-2.11-6.96h-10.99l-2.09,6.96h-6.66l11.32-33.8h5.81l11.39,33.8h-6.66Zm34.7,0h-6.73l-5.7-12.37h-4.99v12.37h-6.27v-33.8h11.3c3.59,0,6.36,.89,8.31,2.67,1.95,1.78,2.92,4.29,2.92,7.54,0,2.31-.45,4.23-1.35,5.77-.9,1.54-2.26,2.77-4.08,3.68l6.58,13.81v.33Zm25.51,0h-20.39v-33.8h20.35v5.64h-14.08v8.05h12.03v5.46h-12.03v9.05h14.12v5.59Z"/>
      </g>
    </g>
  </g>
</svg>