<?xml version="1.0" encoding="utf-8"?>
<svg id="master-artboard" viewBox="0 0 1400 980" version="1.1" xmlns="http://www.w3.org/2000/svg" x="0px" y="0px" style="enable-background:new 0 0 1400 980;" width="1400px" height="980px"><rect id="ee-background" x="0" y="0" width="1400" height="980" style="fill: white; fill-opacity: 0; pointer-events: none;"/><g transform="matrix(7.964255332946778, 0, 0, 7.964255332946778, -4510.9049635907395, -299.7970106483699)"><g id="g-1" transform="matrix(1, 0, 0, 1, 0, 0)">
	<g id="g-2">
		<path class="st0" d="M652,46c27.6,0,50,22.4,50,50s-22.4,50-50,50s-50-22.4-50-50S624.4,46,652,46z" style="fill: rgb(0, 0, 0);"/>
	</g>
</g></g><g transform="matrix(9.145503997802736, 0, 0, 9.145503997802736, 21.646884305812307, -7164.345511138896)"><g id="g-6" transform="matrix(1, 0, 0, 1, 0, 0)">
	<g id="g-7">
		<g>
			<path class="st0" d="M163,887H57V781h106V887z M63,881h94v-94H63V881z" style="fill: rgb(255, 255, 255); fill-opacity: 1; stroke-opacity: 1; stroke: rgb(255, 255, 255); stroke-width: 0;"/>
		</g>
	</g>
</g></g><g transform="matrix(3.0408022403717045, -1.7330242395401003, 1.7330242395401003, 3.0408022403717045, -1426.7003861693045, 116.79371279887816)"><g id="g-3" transform="matrix(1, 0, 0, 1, 0, 0)">
	<path class="st0" d="M509.4,349.5c-4.1-7.2-10.8-7.2-14.9,0L459.4,411c-4.1,7.2-0.7,13,7.6,13h70c8.2,0,11.7-5.9,7.6-13&#10;&#9;&#9;L509.4,349.5z" style="fill: rgb(255, 255, 255);"/>
</g></g><g transform="matrix(0.7633576151612143, 0, 0, 0.7633576151612143, -389.5909064391714, -161.91760815146432)"><path d="M 562.5999755859375 646.9000244140625 L 545.5999755859375 629.9000244140625 L 518.7000122070312 656.7000122070312 L 491.8999938964844 629.9000244140625 L 474.8999938964844 646.9000244140625 L 501.70001220703125 673.7999877929688 L 474.8999938964844 700.5999755859375 L 491.8999938964844 717.5999755859375 L 518.7000122070312 690.7999877929688 L 545.5999755859375 717.5999755859375 L 562.5999755859375 700.5999755859375 L 535.7999877929688 673.7999877929688 Z" class="st0" style="fill: rgb(51, 51, 51);" transform="matrix(1, 0, 0, 1, 0, 0)"/></g><g transform="matrix(0.631570128490446, 0, 0, 0.631570128490446, -406.64601162887817, 304.823334796705)"><g id="Layer_2_43_" transform="matrix(1, 0, 0, 1, 0, 0)">
	<g id="Layer_1-2_41_">
		<g>
			<path class="st0" d="M654,884c-29.2,0-53-23.8-53-53s23.8-53,53-53s53,23.8,53,53S683.2,884,654,884z M654,784&#10;&#9;&#9;&#9;&#9;c-25.9,0-47,21.1-47,47s21.1,47,47,47s47-21.1,47-47S679.9,784,654,784z" style="fill: rgb(51, 51, 51);"/>
		</g>
	</g>
</g></g></svg>