<svg data-v-423bf9ae="" xmlns="http://www.w3.org/2000/svg" viewBox="0 0 473.007488046132 60" class="font"><!----><!----><!----><g data-v-423bf9ae="" id="494bf0f9-aa22-45ce-97fa-f201d544fde9" fill="black" transform="matrix(5.639097690582275,0,0,5.639097690582275,-3.4962456226348877,-19.28571319580078)"><path d="M6.38 14.06C7.66 14.06 8.30 13.44 8.30 12.19L8.30 5.36C8.30 4.06 7.66 3.42 6.38 3.42L0.62 3.42L0.62 14.06ZM5.88 10.96C5.88 11.24 5.74 11.38 5.46 11.38L3.04 11.38L3.04 6.09L5.46 6.09C5.74 6.09 5.88 6.23 5.88 6.51ZM11.90 14.06L11.90 3.42L9.48 3.42L9.48 14.06ZM21.15 14.06L21.15 5.28C21.15 4.03 20.50 3.42 19.19 3.42L15.06 3.42C13.76 3.42 13.10 4.03 13.10 5.28L13.10 14.06L15.51 14.06L15.51 9.69L18.73 9.69L18.73 14.06ZM18.73 7.45L15.51 7.45L15.51 6.44C15.51 6.16 15.65 6.02 15.93 6.02L18.31 6.02C18.59 6.02 18.73 6.16 18.73 6.44ZM28.64 14.06L28.64 11.38L24.79 11.38L24.79 3.42L22.37 3.42L22.37 14.06ZM34.71 10.96C34.71 11.24 34.57 11.38 34.29 11.38L32.27 11.38C31.99 11.38 31.85 11.24 31.85 10.96L31.85 6.51C31.85 6.23 31.99 6.09 32.27 6.09L34.29 6.09C34.57 6.09 34.71 6.23 34.71 6.51ZM35.20 14.06C36.48 14.06 37.11 13.44 37.11 12.19L37.11 5.36C37.11 4.06 36.48 3.42 35.20 3.42L31.35 3.42C30.07 3.42 29.43 4.06 29.43 5.36L29.43 12.19C29.43 13.44 30.07 14.06 31.35 14.06ZM45.56 14.06L45.56 7.57L41.85 7.57L41.85 9.79L43.20 9.79L43.20 11.38L41.08 11.38C40.80 11.38 40.66 11.24 40.66 10.96L40.66 6.51C40.66 6.23 40.80 6.09 41.08 6.09L45.47 6.09L45.47 3.42L40.15 3.42C38.88 3.42 38.23 4.06 38.23 5.36L38.23 12.19C38.23 13.44 38.88 14.06 40.15 14.06ZM57.12 14.06L59.12 3.42L56.56 3.42L55.50 10.29L54.15 3.42L51.27 3.42L49.85 10.29L48.86 3.42L46.19 3.42L48.15 14.06L51.53 14.06L52.64 7.53L53.72 14.06ZM67.75 14.06L67.75 5.28C67.75 4.03 67.09 3.42 65.79 3.42L61.66 3.42C60.35 3.42 59.70 4.03 59.70 5.28L59.70 14.06L62.10 14.06L62.10 9.69L65.32 9.69L65.32 14.06ZM65.32 7.45L62.10 7.45L62.10 6.44C62.10 6.16 62.24 6.02 62.52 6.02L64.90 6.02C65.18 6.02 65.32 6.16 65.32 6.44ZM74.24 7.18C74.24 7.46 74.10 7.60 73.82 7.60L71.39 7.60L71.39 6.02L73.82 6.02C74.10 6.02 74.24 6.16 74.24 6.44ZM76.72 14.06C76.68 13.92 76.65 13.79 76.65 13.41L76.65 10.26C76.65 9.42 76.29 8.92 75.45 8.74C76.23 8.60 76.62 8.05 76.62 7.08L76.62 5.40C76.62 4.07 75.98 3.42 74.69 3.42L68.96 3.42L68.96 14.06L71.39 14.06L71.39 9.86L73.82 9.86C74.10 9.86 74.24 10.00 74.24 10.28L74.24 13.50C74.24 13.76 74.27 13.93 74.31 14.06ZM84.50 14.06L84.50 11.38L80.26 11.38L80.26 9.81L83.90 9.81L83.90 7.56L80.26 7.56L80.26 6.05L84.48 6.05L84.48 3.42L77.83 3.42L77.83 14.06Z"></path></g><!----><!----></svg>