<svg data-v-423bf9ae="" xmlns="http://www.w3.org/2000/svg" viewBox="0 0 496.4908672140009 213" class="iconAboveSlogan"><!----><!----><!----><g data-v-423bf9ae="" id="faacb721-f586-4b7e-a47c-72fc5d8a6dd6" fill="black" transform="matrix(6.085192680358887,0,0,6.085192680358887,-6.32860803604126,98.07099914550781)"><path d="M4.24 10.50C7.66 10.50 8.29 8.81 8.29 5.56C8.29 2.39 7.56 0.98 4.24 0.98L1.04 0.98L1.04 10.50ZM6.30 5.56C6.30 7.67 6.12 8.82 4.24 8.82L2.97 8.82L2.97 2.66L4.24 2.66C6.12 2.66 6.30 3.47 6.30 5.56ZM9.97 10.50L11.90 10.50L11.90 0.98L9.97 0.98ZM13.17 10.50L15.11 10.50L15.48 8.78L18.82 8.78L19.19 10.50L21.13 10.50L18.98 0.98L15.32 0.98ZM16.81 2.58L17.49 2.58L18.45 7.10L15.85 7.10ZM27.82 10.50L27.82 8.79L24.33 8.79L24.33 0.98L22.40 0.98L22.40 10.50ZM32.45 8.99C30.88 8.99 30.49 7.99 30.49 5.80C30.49 3.60 30.88 2.49 32.45 2.49C34.02 2.49 34.41 3.60 34.41 5.80C34.41 7.99 34.02 8.99 32.45 8.99ZM32.45 10.67C35.45 10.67 36.40 9.02 36.40 5.80C36.40 2.58 35.45 0.81 32.45 0.81C29.46 0.81 28.50 2.58 28.50 5.80C28.50 9.02 29.46 10.67 32.45 10.67ZM42.01 7.08L42.88 7.08L42.88 8.93C42.88 8.93 42.29 8.99 41.72 8.99C39.98 8.99 39.63 8.27 39.63 5.74C39.63 3.07 40.12 2.52 41.78 2.52C43.05 2.52 44.73 2.70 44.73 2.70L44.79 1.20C44.79 1.20 42.94 0.81 41.47 0.81C38.65 0.81 37.65 2.27 37.65 5.74C37.65 8.93 38.43 10.67 41.54 10.67C42.78 10.67 44.79 10.35 44.79 10.35L44.79 5.40L42.01 5.40ZM45.84 0.98L47.66 10.50L50.58 10.50L52.08 3.26L53.58 10.50L56.50 10.50L58.32 0.98L56.29 0.98L55.12 8.85L54.91 8.85L53.20 0.98L50.96 0.98L49.25 8.85L49.04 8.85L47.87 0.98ZM58.56 10.50L60.49 10.50L60.87 8.78L64.20 8.78L64.58 10.50L66.51 10.50L64.37 0.98L60.70 0.98ZM62.20 2.58L62.87 2.58L63.84 7.10L61.24 7.10ZM71.58 7.31L72.69 10.50L74.80 10.50L73.44 6.86C74.31 6.31 74.84 5.43 74.84 4.12C74.84 1.95 73.65 0.98 71.48 0.98L67.79 0.98L67.79 10.50L69.72 10.50L69.72 7.31ZM72.87 4.14C72.87 4.98 72.48 5.66 71.51 5.66L69.72 5.66L69.72 2.63L71.48 2.63C72.41 2.63 72.87 3.23 72.87 4.14ZM76.47 10.50L82.63 10.50L82.63 8.82L78.40 8.82L78.40 6.54L81.79 6.54L81.79 4.89L78.40 4.89L78.40 2.66L82.63 2.66L82.63 0.98L76.47 0.98Z"></path></g><!----><g data-v-423bf9ae="" id="1be9feba-df9a-4a79-9349-99e17b1d9787" transform="matrix(4.5,0,0,4.5,204,0)" stroke="none" fill="black"><path d="M20 0v20H0V0h20zM3 3v14h14V3H3zm6 2.5v3H5v-3h4z"></path></g><!----><g data-v-423bf9ae="" id="b5552c9b-48b8-450e-933d-934ab6d19981" fill="black" transform="matrix(3.473583459854126,0,0,3.473583459854126,61.52964401245117,179.952392578125)"><path d="M5.22 9.16L3.93 9.16L3.93 7.29L5.22 7.29ZM7.36 13.03L7.36 11.31L8.65 11.31L8.65 9.16L7.36 9.16L7.36 7.29L8.65 7.29L8.65 5.14L7.36 5.14L7.36 3.42L5.22 3.42L5.22 5.14L3.93 5.14L3.93 3.42L1.81 3.42L1.81 5.14L0.52 5.14L0.52 7.29L1.81 7.29L1.81 9.16L0.52 9.16L0.52 11.31L1.81 11.31L1.81 13.03L3.93 13.03L3.93 11.31L5.22 11.31L5.22 13.03ZM14.10 14.06L14.10 11.63L12.57 11.63C12.33 11.63 12.21 11.48 12.21 11.16L12.21 8.13L14.11 8.13L14.11 5.92L12.21 5.92L12.21 3.56L9.79 3.56L9.79 12.25C9.79 13.45 10.46 14.06 11.79 14.06ZM19.99 8.95C19.99 9.13 19.89 9.23 19.71 9.23L17.67 9.23C17.49 9.23 17.39 9.13 17.39 8.95L17.39 8.37C17.39 8.19 17.49 8.09 17.67 8.09L19.71 8.09C19.89 8.09 19.99 8.19 19.99 8.37ZM22.05 14.06L22.05 11.76L17.81 11.76C17.53 11.76 17.39 11.62 17.39 11.34L17.39 10.72C17.51 10.79 17.67 10.82 17.82 10.82L20.61 10.82C21.80 10.82 22.40 10.19 22.40 8.92L22.40 7.71C22.40 6.47 21.80 5.84 20.61 5.84L16.86 5.84C15.60 5.84 14.97 6.48 14.97 7.77L14.97 12.12C14.97 13.41 15.62 14.06 16.93 14.06ZM31.89 14.06L28.95 9.86L31.78 5.84L28.85 5.84L27.48 8.05L26.05 5.84L23.02 5.84L25.86 9.86L22.97 14.06L25.98 14.06L27.40 11.77L28.87 14.06ZM36.76 14.06L36.76 11.63L35.24 11.63C35 11.63 34.87 11.48 34.87 11.16L34.87 8.13L36.78 8.13L36.78 5.92L34.87 5.92L34.87 3.56L32.45 3.56L32.45 12.25C32.45 13.45 33.12 14.06 34.45 14.06ZM45.32 14.06L45.32 11.38L40.03 11.38L40.03 10.50C40.03 10.12 40.21 9.94 40.57 9.94L43.36 9.94C44.66 9.94 45.32 9.32 45.32 8.08L45.32 5.45C45.32 4.09 44.69 3.42 43.41 3.42L37.81 3.42L37.81 6.09L42.34 6.09C42.71 6.09 42.90 6.29 42.90 6.65L42.90 6.96C42.90 7.34 42.71 7.52 42.34 7.52L39.49 7.52C38.25 7.52 37.63 8.15 37.63 9.39L37.63 14.06ZM52.11 14.06C53.27 14.06 53.84 13.41 53.84 12.12L53.84 10.85C53.84 9.67 53.27 9.09 52.11 9.09L49.03 9.09C48.87 9.09 48.79 9.02 48.79 8.86L48.79 8.37C48.79 8.20 48.87 8.12 49.03 8.12L53.62 8.12L53.62 5.84L48.33 5.84C47.05 5.84 46.42 6.48 46.42 7.76L46.42 9.00C46.42 10.23 46.82 10.79 48.09 10.79L51.16 10.79C51.31 10.79 51.39 10.86 51.39 11.02L51.39 11.51C51.39 11.68 51.31 11.76 51.16 11.76L46.52 11.76L46.52 14.06ZM59.99 11.21C59.99 11.49 59.85 11.63 59.57 11.63L57.79 11.63C57.51 11.63 57.37 11.48 57.37 11.19L57.37 8.69C57.37 8.41 57.51 8.27 57.79 8.27L59.57 8.27C59.85 8.27 59.99 8.41 59.99 8.69ZM60.51 14.06C61.75 14.06 62.38 13.41 62.38 12.14L62.38 7.78C62.38 6.48 61.75 5.84 60.48 5.84L56.87 5.84C55.59 5.84 54.95 6.48 54.95 7.77L54.95 12.19C54.95 13.44 55.61 14.06 56.91 14.06ZM66.00 14.06L66.00 8.13L67.75 8.13L67.75 6.12L66.00 6.12L66.00 5.75C66.00 5.38 66.18 5.19 66.56 5.19L68.15 5.19L68.15 3.21L65.49 3.21C64.29 3.21 63.56 3.89 63.56 5.14L63.56 14.06ZM73.11 14.06L73.11 11.63L71.58 11.63C71.34 11.63 71.22 11.48 71.22 11.16L71.22 8.13L73.12 8.13L73.12 5.92L71.22 5.92L71.22 3.56L68.80 3.56L68.80 12.25C68.80 13.45 69.47 14.06 70.80 14.06ZM83.59 14.06L85.95 5.84L83.27 5.84L82.11 10.63L81.05 5.84L78.33 5.84L77.20 10.63L76.13 5.84L73.51 5.84L75.53 14.06L78.36 14.06L79.65 9.32L80.72 14.06ZM91.32 11.52C91.32 11.70 91.22 11.80 91.04 11.80L89.00 11.80C88.82 11.80 88.72 11.70 88.72 11.52L88.72 10.95C88.72 10.77 88.82 10.67 89.00 10.67L91.04 10.67C91.22 10.67 91.32 10.77 91.32 10.95ZM91.85 14.06C93.11 14.06 93.74 13.41 93.74 12.12L93.74 7.77C93.74 6.48 93.09 5.84 91.78 5.84L86.63 5.84L86.63 8.13L90.90 8.13C91.18 8.13 91.32 8.27 91.32 8.55L91.32 9.17C91.20 9.11 91.04 9.07 90.86 9.07L88.10 9.07C86.91 9.07 86.31 9.70 86.31 10.98L86.31 12.19C86.31 13.44 86.91 14.06 88.10 14.06ZM97.36 14.06L97.36 8.68C97.36 8.40 97.50 8.26 97.78 8.26L99.57 8.26L99.57 5.84L96.85 5.84C95.52 5.84 94.92 6.50 94.92 7.77L94.92 14.06ZM105.31 8.95C105.31 9.13 105.21 9.23 105.03 9.23L102.98 9.23C102.80 9.23 102.70 9.13 102.70 8.95L102.70 8.37C102.70 8.19 102.80 8.09 102.98 8.09L105.03 8.09C105.21 8.09 105.31 8.19 105.31 8.37ZM107.37 14.06L107.37 11.76L103.12 11.76C102.84 11.76 102.70 11.62 102.70 11.34L102.70 10.72C102.83 10.79 102.98 10.82 103.14 10.82L105.92 10.82C107.11 10.82 107.72 10.19 107.72 8.92L107.72 7.71C107.72 6.47 107.11 5.84 105.92 5.84L102.17 5.84C100.91 5.84 100.28 6.48 100.28 7.77L100.28 12.12C100.28 13.41 100.94 14.06 102.24 14.06Z"></path></g></svg>