<svg data-v-423bf9ae="" xmlns="http://www.w3.org/2000/svg" viewBox="0 0 318.8939839413556 196" class="iconAboveSlogan"><!----><!----><!----><g data-v-423bf9ae="" id="91884fe3-102b-4177-bd63-d4fe1ef3a355" fill="white" transform="matrix(4.60829496383667,0,0,4.60829496383667,-4.792638778686523,99.7741928100586)"><path d="M4.24 10.50C7.66 10.50 8.29 8.81 8.29 5.56C8.29 2.39 7.56 0.98 4.24 0.98L1.04 0.98L1.04 10.50ZM6.30 5.56C6.30 7.67 6.12 8.82 4.24 8.82L2.97 8.82L2.97 2.66L4.24 2.66C6.12 2.66 6.30 3.47 6.30 5.56ZM9.80 10.50L11.68 10.50L11.68 3.50L9.80 3.50ZM9.80 2.60L11.68 2.60L11.68 0.70L9.80 0.70ZM18.77 5.68C18.77 4.05 18.05 3.33 16.23 3.33C14.88 3.33 13.38 3.74 13.38 3.74L13.44 5.04C13.44 5.04 15.15 4.93 16.07 4.93C16.63 4.93 16.90 5.08 16.90 5.68L16.90 6.12L15.40 6.23C13.86 6.34 12.95 6.79 12.95 8.37C12.95 9.86 13.65 10.67 15.12 10.67C16.17 10.67 17.18 10.18 17.18 10.18C17.77 10.57 18.24 10.67 19.18 10.67L19.24 9.25C18.86 9.18 18.80 9.02 18.77 8.60ZM16.90 7.42L16.90 8.92C16.90 8.92 16.13 9.14 15.53 9.14C15.02 9.14 14.84 8.81 14.84 8.32C14.84 7.81 15.13 7.57 15.62 7.53ZM20.65 10.50L22.53 10.50L22.53 0.70L20.65 0.70ZM27.20 3.33C24.77 3.33 23.98 4.83 23.98 6.99C23.98 9.14 24.77 10.67 27.20 10.67C29.64 10.67 30.42 9.14 30.42 6.99C30.42 4.83 29.64 3.33 27.20 3.33ZM27.20 9.07C26.17 9.07 25.89 8.34 25.89 6.99C25.89 5.63 26.17 4.93 27.20 4.93C28.24 4.93 28.52 5.63 28.52 6.99C28.52 8.34 28.24 9.07 27.20 9.07ZM34.82 13.72C36.62 13.72 38.14 13.08 38.14 11.37C38.14 9.80 37.46 9.27 35.08 9.25C33.89 9.24 33.73 9.16 33.73 8.79C33.73 8.61 33.87 8.25 33.87 8.25C33.99 8.27 34.29 8.30 34.44 8.30C36.36 8.30 37.39 7.80 37.39 5.84C37.39 5.43 37.21 5.08 37.09 4.89L38.14 4.97L38.14 3.47L35.88 3.54C35.88 3.54 35.08 3.36 34.47 3.36C32.83 3.36 31.53 4.03 31.53 5.84C31.53 7.06 31.99 7.57 32.48 7.92C32.48 7.92 31.93 8.69 31.93 9.04C31.93 9.48 32.14 9.90 32.45 10.11C31.75 10.65 31.44 11.13 31.44 11.77C31.44 13.34 32.77 13.72 34.82 13.72ZM34.93 10.88C35.97 10.89 36.25 10.95 36.25 11.48C36.25 11.98 35.74 12.18 34.83 12.18C33.78 12.18 33.29 11.98 33.29 11.58C33.29 11.23 33.43 11.02 33.67 10.78C33.67 10.78 34.54 10.88 34.93 10.88ZM34.48 6.87C33.73 6.87 33.40 6.50 33.40 5.84C33.40 5.18 33.73 4.82 34.48 4.82C35.24 4.82 35.55 5.18 35.55 5.84C35.55 6.50 35.24 6.87 34.48 6.87ZM38.67 0.98L40.49 10.50L43.41 10.50L44.91 3.26L46.41 10.50L49.34 10.50L51.16 0.98L49.13 0.98L47.95 8.85L47.74 8.85L46.03 0.98L43.79 0.98L42.08 8.85L41.87 8.85L40.70 0.98ZM57.44 5.68C57.44 4.05 56.71 3.33 54.89 3.33C53.55 3.33 52.05 3.74 52.05 3.74L52.11 5.04C52.11 5.04 53.82 4.93 54.74 4.93C55.30 4.93 55.57 5.08 55.57 5.68L55.57 6.12L54.07 6.23C52.53 6.34 51.62 6.79 51.62 8.37C51.62 9.86 52.32 10.67 53.79 10.67C54.84 10.67 55.85 10.18 55.85 10.18C56.43 10.57 56.91 10.67 57.85 10.67L57.90 9.25C57.53 9.18 57.47 9.02 57.44 8.60ZM55.57 7.42L55.57 8.92C55.57 8.92 54.80 9.14 54.19 9.14C53.69 9.14 53.51 8.81 53.51 8.32C53.51 7.81 53.80 7.57 54.29 7.53ZM59.23 10.50L61.11 10.50L61.11 5.81C61.11 5.81 62.10 5.46 63.34 5.22L63.34 3.33C62.27 3.54 61.10 4.24 61.10 4.24L61.10 3.50L59.23 3.50ZM67.40 9.02C66.39 9.02 66.00 8.64 65.98 7.80L70.10 7.80L70.24 6.50C70.24 4.38 69.24 3.33 67.19 3.33C65.14 3.33 64.09 4.61 64.09 7.10C64.09 9.62 64.99 10.67 67.10 10.67C68.40 10.67 70.01 10.28 70.01 10.28L69.99 8.89C69.99 8.89 68.54 9.02 67.40 9.02ZM65.97 6.37C65.98 5.31 66.29 4.87 67.19 4.87C68.07 4.87 68.39 5.24 68.39 6.37Z"></path></g><!----><g data-v-423bf9ae="" id="380cc648-565e-474c-beac-b5944aa15ebb" transform="matrix(4.5,0,0,4.5,115,0)" stroke="none" fill="white"><path d="M20 0v20H0V0h20zM3 3v14h14V3H3zm6 2.5v3H5v-3h4z"></path></g><!----><g data-v-423bf9ae="" id="f8471fd9-bdbd-4ce4-b189-0bf161838abf" fill="white" transform="matrix(2.0886428356170654,0,0,2.0886428356170654,40.17525100708008,194.86550903320312)"><path d="M7.62 8.41L7.62 6.85L6.27 6.85L6.27 5.08L7.62 5.08L7.62 3.51L6.27 3.51L6.27 1.26L4.65 1.26L4.65 3.51L3.19 3.51L3.19 1.26L1.57 1.26L1.57 3.51L0.22 3.51L0.22 5.08L1.57 5.08L1.57 6.85L0.22 6.85L0.22 8.41L1.57 8.41L1.57 10.50L3.19 10.50L3.19 8.41L4.65 8.41L4.65 10.50L6.27 10.50L6.27 8.41ZM4.65 6.85L3.19 6.85L3.19 5.08L4.65 5.08ZM8.02 2.69L10.57 2.69L10.57 10.50L12.50 10.50L12.50 2.69L15.02 2.69L15.02 0.98L8.02 0.98ZM16.24 10.50L22.40 10.50L22.40 8.82L18.17 8.82L18.17 6.54L21.56 6.54L21.56 4.89L18.17 4.89L18.17 2.66L22.40 2.66L22.40 0.98L16.24 0.98ZM25.23 0.98L23.09 0.98L25.83 5.94L23.09 10.50L25.09 10.50L26.89 7.21L28.66 10.50L30.80 10.50L28.06 5.84L30.80 0.98L28.80 0.98L26.99 4.48ZM31.11 2.69L33.66 2.69L33.66 10.50L35.59 10.50L35.59 2.69L38.11 2.69L38.11 0.98L31.11 0.98ZM45.19 10.50L45.19 8.82L41.36 8.82L42.97 7.36C44.49 5.98 45.04 5.17 45.04 3.74C45.04 2.02 44.14 1.09 42.03 1.09C40.63 1.09 39.26 1.51 39.26 1.51L39.35 3.01C39.35 3.01 40.59 2.80 41.54 2.80C42.62 2.80 43.05 3.08 43.05 4.02C43.05 4.91 42.38 5.63 41.17 6.86L39.20 8.86L39.20 10.50ZM53.03 1.19C53.03 1.19 51.17 0.81 49.90 0.81C47.96 0.81 46.65 1.67 46.65 3.64C46.65 5.17 47.46 5.89 49.60 6.51C50.97 6.90 51.31 7.17 51.31 7.76C51.31 8.50 50.86 8.99 49.83 8.99C48.83 8.99 46.96 8.74 46.96 8.74L46.76 10.23C46.76 10.23 48.64 10.67 49.94 10.67C51.81 10.67 53.23 9.70 53.23 7.63C53.23 6.05 52.60 5.47 50.54 4.82C48.94 4.31 48.57 4.10 48.57 3.50C48.57 2.87 49.06 2.49 50.09 2.49C50.90 2.49 52.88 2.72 52.88 2.72ZM58.31 8.99C56.74 8.99 56.35 7.99 56.35 5.80C56.35 3.60 56.74 2.49 58.31 2.49C59.88 2.49 60.27 3.60 60.27 5.80C60.27 7.99 59.88 8.99 58.31 8.99ZM58.31 10.67C61.31 10.67 62.26 9.02 62.26 5.80C62.26 2.58 61.31 0.81 58.31 0.81C55.31 0.81 54.36 2.58 54.36 5.80C54.36 9.02 55.31 10.67 58.31 10.67ZM63.91 10.50L65.84 10.50L65.84 7.14L69.23 7.14L69.23 5.46L65.84 5.46L65.84 2.66L69.99 2.66L69.99 0.98L63.91 0.98ZM70.49 2.69L73.04 2.69L73.04 10.50L74.97 10.50L74.97 2.69L77.49 2.69L77.49 0.98L70.49 0.98ZM77.94 0.98L79.76 10.50L82.68 10.50L84.18 3.26L85.68 10.50L88.61 10.50L90.43 0.98L88.40 0.98L87.22 8.85L87.01 8.85L85.30 0.98L83.06 0.98L81.35 8.85L81.14 8.85L79.97 0.98ZM90.66 10.50L92.60 10.50L92.97 8.78L96.31 8.78L96.68 10.50L98.62 10.50L96.47 0.98L92.81 0.98ZM94.30 2.58L94.98 2.58L95.94 7.10L93.34 7.10ZM103.68 7.31L104.79 10.50L106.90 10.50L105.55 6.86C106.41 6.31 106.95 5.43 106.95 4.12C106.95 1.95 105.76 0.98 103.59 0.98L99.89 0.98L99.89 10.50L101.82 10.50L101.82 7.31ZM104.97 4.14C104.97 4.98 104.58 5.66 103.61 5.66L101.82 5.66L101.82 2.63L103.59 2.63C104.51 2.63 104.97 3.23 104.97 4.14ZM108.57 10.50L114.73 10.50L114.73 8.82L110.50 8.82L110.50 6.54L113.89 6.54L113.89 4.89L110.50 4.89L110.50 2.66L114.73 2.66L114.73 0.98L108.57 0.98Z"></path></g></svg>