<svg data-v-fde0c5aa="" xmlns="http://www.w3.org/2000/svg" viewBox="0 0 300 300" class="font"><!----><defs data-v-fde0c5aa=""><!----></defs><rect data-v-fde0c5aa="" fill="transparent" x="0" y="0" width="300px" height="300px" class="logo-background-square"></rect><defs data-v-fde0c5aa=""><linearGradient data-v-fde0c5aa="" gradientTransform="rotate(25)" id="ae47cd95-b34f-406c-a01e-eca551ff93e0" x1="0%" y1="0%" x2="100%" y2="0%"><stop data-v-fde0c5aa="" offset="0%" stop-color="#00D2FF" stop-opacity="1"></stop><stop data-v-fde0c5aa="" offset="100%" stop-color="#10DD45" stop-opacity="1"></stop></linearGradient></defs><g data-v-fde0c5aa="" id="c9a8785e-6663-49ff-856e-9a9761726239" fill="url(#ae47cd95-b34f-406c-a01e-eca551ff93e0)" transform="matrix(2.696408987045288,0,0,2.696408987045288,37.195734748410445,134.5226128270756)"><path d="M4.24 10.50C7.66 10.50 8.29 8.81 8.29 5.56C8.29 2.39 7.56 0.98 4.24 0.98L1.04 0.98L1.04 10.50ZM6.30 5.56C6.30 7.67 6.12 8.82 4.24 8.82L2.97 8.82L2.97 2.66L4.24 2.66C6.12 2.66 6.30 3.47 6.30 5.56ZM9.97 10.50L11.90 10.50L11.90 0.98L9.97 0.98ZM13.17 10.50L15.11 10.50L15.48 8.78L18.82 8.78L19.19 10.50L21.13 10.50L18.98 0.98L15.32 0.98ZM16.81 2.58L17.49 2.58L18.45 7.10L15.85 7.10ZM27.82 10.50L27.82 8.79L24.33 8.79L24.33 0.98L22.40 0.98L22.40 10.50ZM32.45 8.99C30.88 8.99 30.49 7.99 30.49 5.80C30.49 3.60 30.88 2.49 32.45 2.49C34.02 2.49 34.41 3.60 34.41 5.80C34.41 7.99 34.02 8.99 32.45 8.99ZM32.45 10.67C35.45 10.67 36.40 9.02 36.40 5.80C36.40 2.58 35.45 0.81 32.45 0.81C29.46 0.81 28.50 2.58 28.50 5.80C28.50 9.02 29.46 10.67 32.45 10.67ZM42.01 7.08L42.88 7.08L42.88 8.93C42.88 8.93 42.29 8.99 41.72 8.99C39.98 8.99 39.63 8.27 39.63 5.74C39.63 3.07 40.12 2.52 41.78 2.52C43.05 2.52 44.73 2.70 44.73 2.70L44.79 1.20C44.79 1.20 42.94 0.81 41.47 0.81C38.65 0.81 37.65 2.27 37.65 5.74C37.65 8.93 38.43 10.67 41.54 10.67C42.78 10.67 44.79 10.35 44.79 10.35L44.79 5.40L42.01 5.40ZM45.84 0.98L47.66 10.50L50.58 10.50L52.08 3.26L53.58 10.50L56.50 10.50L58.32 0.98L56.29 0.98L55.12 8.85L54.91 8.85L53.20 0.98L50.96 0.98L49.25 8.85L49.04 8.85L47.87 0.98ZM58.56 10.50L60.49 10.50L60.87 8.78L64.20 8.78L64.58 10.50L66.51 10.50L64.37 0.98L60.70 0.98ZM62.20 2.58L62.87 2.58L63.84 7.10L61.24 7.10ZM71.58 7.31L72.69 10.50L74.80 10.50L73.44 6.86C74.31 6.31 74.84 5.43 74.84 4.12C74.84 1.95 73.65 0.98 71.48 0.98L67.79 0.98L67.79 10.50L69.72 10.50L69.72 7.31ZM72.87 4.14C72.87 4.98 72.48 5.66 71.51 5.66L69.72 5.66L69.72 2.63L71.48 2.63C72.41 2.63 72.87 3.23 72.87 4.14ZM76.47 10.50L82.63 10.50L82.63 8.82L78.40 8.82L78.40 6.54L81.79 6.54L81.79 4.89L78.40 4.89L78.40 2.66L82.63 2.66L82.63 0.98L76.47 0.98Z"></path></g><!----><!----></svg>