<svg data-v-423bf9ae="" xmlns="http://www.w3.org/2000/svg" viewBox="0 0 607 90" class="iconLeftSlogan"><!----><!----><!----><g data-v-423bf9ae="" id="3c2ccb89-9160-4e56-9c05-4591235a9e3d" fill="black" transform="matrix(6.085192680358887,0,0,6.085192680358887,103.67139434814453,-4.929004669189453)"><path d="M4.24 10.50C7.66 10.50 8.29 8.81 8.29 5.56C8.29 2.39 7.56 0.98 4.24 0.98L1.04 0.98L1.04 10.50ZM6.30 5.56C6.30 7.67 6.12 8.82 4.24 8.82L2.97 8.82L2.97 2.66L4.24 2.66C6.12 2.66 6.30 3.47 6.30 5.56ZM9.97 10.50L11.90 10.50L11.90 0.98L9.97 0.98ZM13.17 10.50L15.11 10.50L15.48 8.78L18.82 8.78L19.19 10.50L21.13 10.50L18.98 0.98L15.32 0.98ZM16.81 2.58L17.49 2.58L18.45 7.10L15.85 7.10ZM27.82 10.50L27.82 8.79L24.33 8.79L24.33 0.98L22.40 0.98L22.40 10.50ZM32.45 8.99C30.88 8.99 30.49 7.99 30.49 5.80C30.49 3.60 30.88 2.49 32.45 2.49C34.02 2.49 34.41 3.60 34.41 5.80C34.41 7.99 34.02 8.99 32.45 8.99ZM32.45 10.67C35.45 10.67 36.40 9.02 36.40 5.80C36.40 2.58 35.45 0.81 32.45 0.81C29.46 0.81 28.50 2.58 28.50 5.80C28.50 9.02 29.46 10.67 32.45 10.67ZM42.01 7.08L42.88 7.08L42.88 8.93C42.88 8.93 42.29 8.99 41.72 8.99C39.98 8.99 39.63 8.27 39.63 5.74C39.63 3.07 40.12 2.52 41.78 2.52C43.05 2.52 44.73 2.70 44.73 2.70L44.79 1.20C44.79 1.20 42.94 0.81 41.47 0.81C38.65 0.81 37.65 2.27 37.65 5.74C37.65 8.93 38.43 10.67 41.54 10.67C42.78 10.67 44.79 10.35 44.79 10.35L44.79 5.40L42.01 5.40ZM45.84 0.98L47.66 10.50L50.58 10.50L52.08 3.26L53.58 10.50L56.50 10.50L58.32 0.98L56.29 0.98L55.12 8.85L54.91 8.85L53.20 0.98L50.96 0.98L49.25 8.85L49.04 8.85L47.87 0.98ZM58.56 10.50L60.49 10.50L60.87 8.78L64.20 8.78L64.58 10.50L66.51 10.50L64.37 0.98L60.70 0.98ZM62.20 2.58L62.87 2.58L63.84 7.10L61.24 7.10ZM71.58 7.31L72.69 10.50L74.80 10.50L73.44 6.86C74.31 6.31 74.84 5.43 74.84 4.12C74.84 1.95 73.65 0.98 71.48 0.98L67.79 0.98L67.79 10.50L69.72 10.50L69.72 7.31ZM72.87 4.14C72.87 4.98 72.48 5.66 71.51 5.66L69.72 5.66L69.72 2.63L71.48 2.63C72.41 2.63 72.87 3.23 72.87 4.14ZM76.47 10.50L82.63 10.50L82.63 8.82L78.40 8.82L78.40 6.54L81.79 6.54L81.79 4.89L78.40 4.89L78.40 2.66L82.63 2.66L82.63 0.98L76.47 0.98Z"></path></g><!----><g data-v-423bf9ae="" id="a319a79b-216c-4ade-9208-0c190ee6542d" transform="matrix(4.5,0,0,4.5,0,0)" stroke="none" fill="black"><path d="M20 0v20H0V0h20zM3 3v14h14V3H3zm6 2.5v3H5v-3h4z"></path></g><!----><g data-v-423bf9ae="" id="84954ac6-e0aa-4b21-be35-84cb008dc729" fill="black" transform="matrix(2.1607699394226074,0,0,2.1607699394226074,108.63871002197266,56.60759353637695)"><path d="M1.05 5.29L1.05 6.20L2.48 6.20L2.20 8.22L0.63 8.22L0.63 9.13L2.07 9.13L1.79 11.13L2.70 11.13L2.98 9.13L4.61 9.13L4.33 11.13L5.24 11.13L5.52 9.13L7.08 9.13L7.08 8.22L5.64 8.22L5.92 6.20L7.50 6.20L7.50 5.29L6.05 5.29L6.34 3.29L5.43 3.29L5.14 5.29L3.51 5.29L3.81 3.29L2.90 3.29L2.60 5.29ZM3.39 6.20L5.01 6.20L4.73 8.22L3.11 8.22ZM17.85 11.48L17.85 5.40L19.46 5.40L19.46 4.48L17.85 4.48L17.85 1.97L16.80 1.97L16.80 4.48L15.37 4.48L15.37 5.40L16.80 5.40L16.80 11.48ZM30.59 10.64C29.18 10.64 28.27 9.65 28.11 8.40L33.98 8.40L33.98 7.98C33.98 5.98 32.65 4.37 30.51 4.37C28.36 4.37 27.03 5.98 27.03 7.98C27.03 9.98 28.43 11.59 30.58 11.59C32.24 11.59 33.28 10.72 33.77 9.46L32.62 9.46C32.24 10.16 31.57 10.64 30.59 10.64ZM30.51 5.32C31.85 5.32 32.69 6.23 32.89 7.42L28.13 7.42C28.32 6.23 29.16 5.32 30.51 5.32ZM47.63 4.48L46.28 4.48L44.49 7.13L42.69 4.48L41.34 4.48L43.88 7.87L41.17 11.48L42.50 11.48L44.49 8.62L46.47 11.48L47.81 11.48L45.09 7.87ZM57.58 11.48L57.58 5.40L59.19 5.40L59.19 4.48L57.58 4.48L57.58 1.97L56.53 1.97L56.53 4.48L55.10 4.48L55.10 5.40L56.53 5.40L56.53 11.48ZM73.42 4.83C73.42 3.29 72.25 2.10 70.25 2.10C68.54 2.10 67.19 3.14 67.03 4.73L68.08 4.73C68.22 3.70 69.05 3.12 70.28 3.12C71.62 3.12 72.37 3.78 72.37 4.86C72.37 6.99 67.16 8.16 67.16 10.91L67.16 11.48L73.39 11.48L73.39 10.47L68.40 10.47C68.57 8.83 73.42 7.42 73.42 4.83ZM84.48 4.37C82.67 4.37 81.73 5.11 81.73 6.37C81.73 8.93 86.39 7.84 86.39 9.59C86.39 10.54 85.18 10.70 84.60 10.70C83.24 10.70 82.71 10.00 82.64 9.28L81.55 9.28C81.62 10.51 82.64 11.59 84.59 11.59C86.32 11.59 87.44 10.85 87.44 9.49C87.44 6.86 82.78 7.95 82.78 6.27C82.78 5.59 83.36 5.26 84.45 5.26C85.62 5.26 86.07 5.75 86.16 6.36L87.22 6.36C87.09 5.33 86.32 4.37 84.48 4.37ZM98.83 4.37C96.68 4.37 95.35 5.98 95.35 7.98C95.35 9.98 96.68 11.59 98.83 11.59C100.97 11.59 102.30 9.98 102.30 7.98C102.30 5.98 100.97 4.37 98.83 4.37ZM98.83 10.64C97.27 10.64 96.40 9.42 96.40 7.98C96.40 6.54 97.27 5.32 98.83 5.32C100.38 5.32 101.25 6.54 101.25 7.98C101.25 9.42 100.38 10.64 98.83 10.64ZM113.75 2.56L113.75 1.57L113.67 1.57C112.06 1.57 111.08 2.34 111.08 3.86L111.08 4.48L109.87 4.48L109.87 5.40L111.08 5.40L111.08 11.48L112.13 11.48L112.13 5.40L113.75 5.40L113.75 4.48L112.13 4.48L112.13 3.95C112.13 2.98 112.63 2.56 113.61 2.56ZM123.70 11.48L123.70 5.40L125.31 5.40L125.31 4.48L123.70 4.48L123.70 1.97L122.65 1.97L122.65 4.48L121.23 4.48L121.23 5.40L122.65 5.40L122.65 11.48ZM139.58 11.48L140.78 11.48L142.98 4.48L141.86 4.48L140.18 10.18L138.40 4.48L137.26 4.48L135.48 10.18L133.80 4.48L132.68 4.48L134.88 11.48L136.08 11.48L137.83 5.89ZM153.92 4.37C151.87 4.37 150.53 5.98 150.53 7.98C150.53 9.98 151.87 11.59 153.92 11.59C155.08 11.59 155.90 11.12 156.42 10.36L156.42 11.48L157.47 11.48L157.47 4.48L156.42 4.48L156.42 5.61C155.90 4.86 155.08 4.37 153.92 4.37ZM154.06 10.64C152.50 10.64 151.58 9.42 151.58 7.98C151.58 6.54 152.50 5.32 154.06 5.32C155.61 5.32 156.48 6.54 156.48 7.98C156.48 9.42 155.61 10.64 154.06 10.64ZM169.92 4.37C168.18 4.37 167.48 5.73 167.34 6.20L167.34 4.48L166.29 4.48L166.29 11.48L167.34 11.48L167.34 8.40C167.34 6.86 168.29 5.42 169.86 5.42L169.99 5.42L169.99 4.37ZM181.06 10.64C179.65 10.64 178.74 9.65 178.58 8.40L184.45 8.40L184.45 7.98C184.45 5.98 183.12 4.37 180.98 4.37C178.84 4.37 177.51 5.98 177.51 7.98C177.51 9.98 178.91 11.59 181.05 11.59C182.71 11.59 183.75 10.72 184.24 9.46L183.09 9.46C182.71 10.16 182.04 10.64 181.06 10.64ZM180.98 5.32C182.32 5.32 183.16 6.23 183.36 7.42L178.60 7.42C178.79 6.23 179.63 5.32 180.98 5.32Z"></path></g></svg>