<svg data-v-423bf9ae="" xmlns="http://www.w3.org/2000/svg" viewBox="0 0 607 90" class="iconLeftSlogan"><!----><!----><!----><g data-v-423bf9ae="" id="1d3720cc-db6b-4734-9d02-b2fd48f6f91e" fill="black" transform="matrix(6.085192680358887,0,0,6.085192680358887,103.67139434814453,-4.929004669189453)"><path d="M4.24 10.50C7.66 10.50 8.29 8.81 8.29 5.56C8.29 2.39 7.56 0.98 4.24 0.98L1.04 0.98L1.04 10.50ZM6.30 5.56C6.30 7.67 6.12 8.82 4.24 8.82L2.97 8.82L2.97 2.66L4.24 2.66C6.12 2.66 6.30 3.47 6.30 5.56ZM9.97 10.50L11.90 10.50L11.90 0.98L9.97 0.98ZM13.17 10.50L15.11 10.50L15.48 8.78L18.82 8.78L19.19 10.50L21.13 10.50L18.98 0.98L15.32 0.98ZM16.81 2.58L17.49 2.58L18.45 7.10L15.85 7.10ZM27.82 10.50L27.82 8.79L24.33 8.79L24.33 0.98L22.40 0.98L22.40 10.50ZM32.45 8.99C30.88 8.99 30.49 7.99 30.49 5.80C30.49 3.60 30.88 2.49 32.45 2.49C34.02 2.49 34.41 3.60 34.41 5.80C34.41 7.99 34.02 8.99 32.45 8.99ZM32.45 10.67C35.45 10.67 36.40 9.02 36.40 5.80C36.40 2.58 35.45 0.81 32.45 0.81C29.46 0.81 28.50 2.58 28.50 5.80C28.50 9.02 29.46 10.67 32.45 10.67ZM42.01 7.08L42.88 7.08L42.88 8.93C42.88 8.93 42.29 8.99 41.72 8.99C39.98 8.99 39.63 8.27 39.63 5.74C39.63 3.07 40.12 2.52 41.78 2.52C43.05 2.52 44.73 2.70 44.73 2.70L44.79 1.20C44.79 1.20 42.94 0.81 41.47 0.81C38.65 0.81 37.65 2.27 37.65 5.74C37.65 8.93 38.43 10.67 41.54 10.67C42.78 10.67 44.79 10.35 44.79 10.35L44.79 5.40L42.01 5.40ZM45.84 0.98L47.66 10.50L50.58 10.50L52.08 3.26L53.58 10.50L56.50 10.50L58.32 0.98L56.29 0.98L55.12 8.85L54.91 8.85L53.20 0.98L50.96 0.98L49.25 8.85L49.04 8.85L47.87 0.98ZM58.56 10.50L60.49 10.50L60.87 8.78L64.20 8.78L64.58 10.50L66.51 10.50L64.37 0.98L60.70 0.98ZM62.20 2.58L62.87 2.58L63.84 7.10L61.24 7.10ZM71.58 7.31L72.69 10.50L74.80 10.50L73.44 6.86C74.31 6.31 74.84 5.43 74.84 4.12C74.84 1.95 73.65 0.98 71.48 0.98L67.79 0.98L67.79 10.50L69.72 10.50L69.72 7.31ZM72.87 4.14C72.87 4.98 72.48 5.66 71.51 5.66L69.72 5.66L69.72 2.63L71.48 2.63C72.41 2.63 72.87 3.23 72.87 4.14ZM76.47 10.50L82.63 10.50L82.63 8.82L78.40 8.82L78.40 6.54L81.79 6.54L81.79 4.89L78.40 4.89L78.40 2.66L82.63 2.66L82.63 0.98L76.47 0.98Z"></path></g><!----><g data-v-423bf9ae="" id="5e89fdaa-1ed7-424b-b515-eaf57923d7cc" transform="matrix(4.5,0,0,4.5,0,0)" stroke="none" fill="black"><path d="M20 0v20H0V0h20zM3 3v14h14V3H3zm6 2.5v3H5v-3h4z"></path></g><!----><g data-v-423bf9ae="" id="4dc680fb-1da8-4d2b-9733-ef8def4b5a53" fill="black" transform="matrix(1.900261640548706,0,0,1.900261640548706,108.13773345947266,49.20651626586914)"><path d="M6.05 14.25L5.04 14.25L5.04 12.54L3.53 12.54L3.53 14.25L2.52 14.25L2.52 12.54L0.98 12.54L0.98 11.54L2.52 11.54L2.52 10.02L0.98 10.02L0.98 9.02L2.52 9.02L2.52 7.31L3.53 7.31L3.53 9.02L5.04 9.02L5.04 7.31L6.05 7.31L6.05 9.02L7.59 9.02L7.59 10.02L6.05 10.02L6.05 11.54L7.59 11.54L7.59 12.54L6.05 12.54L6.05 14.25ZM5.04 11.54L5.04 10.02L3.53 10.02L3.53 11.54L5.04 11.54ZM16.55 9.74L16.55 8.74L18.73 8.74L18.73 5.88L19.82 5.88L19.82 8.74L22.51 8.74L22.51 9.74L19.82 9.74L19.82 14.25L19.82 14.25Q19.82 14.67 20.20 14.67L20.20 14.67L22.18 14.67L22.18 15.68L19.81 15.68L19.81 15.68Q19.33 15.68 19.03 15.37L19.03 15.37L19.03 15.37Q18.73 15.06 18.73 14.59L18.73 14.59L18.73 9.74L16.55 9.74ZM38.75 12.54L33.15 12.54L33.15 12.54Q33.19 13.58 33.80 14.21L33.80 14.21L33.80 14.21Q34.40 14.84 35.48 14.84L35.48 14.84L35.48 14.84Q35.97 14.84 36.33 14.73L36.33 14.73L36.33 14.73Q36.69 14.62 36.95 14.42L36.95 14.42L36.95 14.42Q37.21 14.22 37.37 13.96L37.37 13.96L37.37 13.96Q37.53 13.71 37.63 13.41L37.63 13.41L38.67 13.69L38.67 13.69Q38.37 14.66 37.58 15.27L37.58 15.27L37.58 15.27Q36.79 15.88 35.45 15.88L35.45 15.88L35.45 15.88Q34.71 15.88 34.08 15.62L34.08 15.62L34.08 15.62Q33.46 15.36 33.01 14.88L33.01 14.88L33.01 14.88Q32.56 14.41 32.31 13.75L32.31 13.75L32.31 13.75Q32.06 13.09 32.06 12.29L32.06 12.29L32.06 11.96L32.06 11.96Q32.06 11.23 32.32 10.60L32.32 10.60L32.32 10.60Q32.58 9.97 33.04 9.51L33.04 9.51L33.04 9.51Q33.50 9.06 34.13 8.80L34.13 8.80L34.13 8.80Q34.75 8.54 35.48 8.54L35.48 8.54L35.48 8.54Q36.33 8.54 36.95 8.86L36.95 8.86L36.95 8.86Q37.58 9.17 37.98 9.63L37.98 9.63L37.98 9.63Q38.37 10.09 38.56 10.64L38.56 10.64L38.56 10.64Q38.75 11.19 38.75 11.65L38.75 11.65L38.75 12.54ZM35.48 9.58L35.48 9.58L35.48 9.58Q35.01 9.58 34.62 9.72L34.62 9.72L34.62 9.72Q34.22 9.87 33.91 10.14L33.91 10.14L33.91 10.14Q33.61 10.40 33.42 10.76L33.42 10.76L33.42 10.76Q33.24 11.12 33.18 11.54L33.18 11.54L37.66 11.54L37.66 11.54Q37.63 11.09 37.44 10.72L37.44 10.72L37.44 10.72Q37.25 10.36 36.95 10.11L36.95 10.11L36.95 10.11Q36.65 9.86 36.27 9.72L36.27 9.72L36.27 9.72Q35.88 9.58 35.48 9.58ZM51.11 11.62L52.86 8.74L54.11 8.74L52.07 12.04L52.07 12.21L54.28 15.68L53.00 15.68L51.11 12.63L50.86 12.63L48.97 15.68L47.70 15.68L49.91 12.21L49.91 12.04L47.87 8.74L49.11 8.74L50.86 11.62L51.11 11.62ZM63.25 9.74L63.25 8.74L65.44 8.74L65.44 5.88L66.53 5.88L66.53 8.74L69.22 8.74L69.22 9.74L66.53 9.74L66.53 14.25L66.53 14.25Q66.53 14.67 66.91 14.67L66.91 14.67L68.88 14.67L68.88 15.68L66.51 15.68L66.51 15.68Q66.04 15.68 65.74 15.37L65.74 15.37L65.74 15.37Q65.44 15.06 65.44 14.59L65.44 14.59L65.44 9.74L63.25 9.74ZM80.00 14.59L85.46 14.59L85.46 15.68L78.82 15.68L78.82 14L78.82 14Q78.82 13.33 79.04 12.83L79.04 12.83L79.04 12.83Q79.27 12.33 79.68 11.98L79.68 11.98L79.68 11.98Q80.09 11.62 80.68 11.38L80.68 11.38L80.68 11.38Q81.27 11.14 82.01 10.98L82.01 10.98L82.01 10.98Q83.26 10.70 83.81 10.18L83.81 10.18L83.81 10.18Q84.36 9.66 84.36 8.90L84.36 8.90L84.36 8.82L84.36 8.82Q84.36 8.44 84.24 8.08L84.24 8.08L84.24 8.08Q84.11 7.71 83.85 7.42L83.85 7.42L83.85 7.42Q83.58 7.13 83.17 6.95L83.17 6.95L83.17 6.95Q82.75 6.78 82.18 6.78L82.18 6.78L82.18 6.78Q81.10 6.78 80.51 7.43L80.51 7.43L80.51 7.43Q79.91 8.09 79.91 9.18L79.91 9.18L79.91 9.80L78.74 9.80L78.74 9.10L78.74 9.10Q78.74 8.43 78.96 7.81L78.96 7.81L78.96 7.81Q79.18 7.20 79.62 6.72L79.62 6.72L79.62 6.72Q80.05 6.24 80.70 5.96L80.70 5.96L80.70 5.96Q81.34 5.68 82.18 5.68L82.18 5.68L82.18 5.68Q83.03 5.68 83.66 5.94L83.66 5.94L83.66 5.94Q84.29 6.20 84.71 6.63L84.71 6.63L84.71 6.63Q85.13 7.06 85.34 7.59L85.34 7.59L85.34 7.59Q85.54 8.13 85.54 8.69L85.54 8.69L85.54 8.95L85.54 8.95Q85.54 10.07 84.84 10.86L84.84 10.86L84.84 10.86Q84.14 11.65 82.60 11.98L82.60 11.98L82.60 11.98Q81.26 12.28 80.63 12.76L80.63 12.76L80.63 12.76Q80.00 13.24 80.00 14.17L80.00 14.17L80.00 14.59ZM96.07 10.53L96.07 10.53L96.07 10.53Q96.07 11.03 96.50 11.30L96.50 11.30L96.50 11.30Q96.92 11.56 98.06 11.65L98.06 11.65L98.06 11.65Q99.27 11.75 99.91 12.23L99.91 12.23L99.91 12.23Q100.55 12.71 100.55 13.64L100.55 13.64L100.55 13.72L100.55 13.72Q100.55 14.22 100.34 14.62L100.34 14.62L100.34 14.62Q100.14 15.02 99.78 15.30L99.78 15.30L99.78 15.30Q99.43 15.58 98.92 15.73L98.92 15.73L98.92 15.73Q98.41 15.88 97.80 15.88L97.80 15.88L97.80 15.88Q96.99 15.88 96.41 15.66L96.41 15.66L96.41 15.66Q95.83 15.44 95.45 15.08L95.45 15.08L95.45 15.08Q95.06 14.73 94.86 14.27L94.86 14.27L94.86 14.27Q94.67 13.82 94.64 13.36L94.64 13.36L95.68 13.10L95.68 13.10Q95.75 13.90 96.29 14.38L96.29 14.38L96.29 14.38Q96.84 14.87 97.75 14.87L97.75 14.87L97.75 14.87Q98.52 14.87 98.99 14.57L98.99 14.57L98.99 14.57Q99.46 14.27 99.46 13.72L99.46 13.72L99.46 13.72Q99.46 13.13 98.99 12.88L98.99 12.88L98.99 12.88Q98.53 12.63 97.50 12.56L97.50 12.56L97.50 12.56Q96.29 12.47 95.65 12.00L95.65 12.00L95.65 12.00Q95.00 11.52 95.00 10.61L95.00 10.61L95.00 10.53L95.00 10.53Q95.00 10.04 95.21 9.67L95.21 9.67L95.21 9.67Q95.42 9.30 95.78 9.04L95.78 9.04L95.78 9.04Q96.14 8.79 96.59 8.67L96.59 8.67L96.59 8.67Q97.03 8.54 97.52 8.54L97.52 8.54L97.52 8.54Q98.21 8.54 98.73 8.73L98.73 8.73L98.73 8.73Q99.25 8.92 99.60 9.22L99.60 9.22L99.60 9.22Q99.95 9.52 100.14 9.91L100.14 9.91L100.14 9.91Q100.32 10.30 100.38 10.70L100.38 10.70L99.34 10.95L99.34 10.95Q99.27 10.28 98.81 9.90L98.81 9.90L98.81 9.90Q98.34 9.52 97.58 9.52L97.58 9.52L97.58 9.52Q97.29 9.52 97.01 9.58L97.01 9.58L97.01 9.58Q96.74 9.65 96.53 9.77L96.53 9.77L96.53 9.77Q96.32 9.90 96.19 10.09L96.19 10.09L96.19 10.09Q96.07 10.28 96.07 10.53ZM116.75 12.12L116.75 12.29L116.75 12.29Q116.75 13.16 116.46 13.82L116.46 13.82L116.46 13.82Q116.17 14.49 115.70 14.95L115.70 14.95L115.70 14.95Q115.22 15.40 114.58 15.64L114.58 15.64L114.58 15.64Q113.95 15.88 113.26 15.88L113.26 15.88L113.26 15.88Q112.56 15.88 111.93 15.64L111.93 15.64L111.93 15.64Q111.30 15.40 110.82 14.95L110.82 14.95L110.82 14.95Q110.35 14.49 110.06 13.82L110.06 13.82L110.06 13.82Q109.77 13.16 109.77 12.29L109.77 12.29L109.77 12.12L109.77 12.12Q109.77 11.27 110.06 10.61L110.06 10.61L110.06 10.61Q110.35 9.94 110.83 9.48L110.83 9.48L110.83 9.48Q111.31 9.02 111.94 8.78L111.94 8.78L111.94 8.78Q112.57 8.54 113.26 8.54L113.26 8.54L113.26 8.54Q113.95 8.54 114.58 8.78L114.58 8.78L114.58 8.78Q115.21 9.02 115.69 9.48L115.69 9.48L115.69 9.48Q116.17 9.94 116.46 10.61L116.46 10.61L116.46 10.61Q116.75 11.27 116.75 12.12L116.75 12.12ZM113.26 14.84L113.26 14.84L113.26 14.84Q113.76 14.84 114.19 14.66L114.19 14.66L114.19 14.66Q114.62 14.49 114.94 14.15L114.94 14.15L114.94 14.15Q115.26 13.82 115.44 13.35L115.44 13.35L115.44 13.35Q115.63 12.88 115.63 12.29L115.63 12.29L115.63 12.12L115.63 12.12Q115.63 11.56 115.44 11.09L115.44 11.09L115.44 11.09Q115.26 10.63 114.94 10.29L114.94 10.29L114.94 10.29Q114.62 9.95 114.18 9.77L114.18 9.77L114.18 9.77Q113.75 9.58 113.26 9.58L113.26 9.58L113.26 9.58Q112.77 9.58 112.34 9.77L112.34 9.77L112.34 9.77Q111.90 9.95 111.58 10.29L111.58 10.29L111.58 10.29Q111.26 10.63 111.08 11.09L111.08 11.09L111.08 11.09Q110.89 11.56 110.89 12.12L110.89 12.12L110.89 12.29L110.89 12.29Q110.89 12.88 111.08 13.35L111.08 13.35L111.08 13.35Q111.26 13.82 111.58 14.15L111.58 14.15L111.58 14.15Q111.90 14.49 112.33 14.66L112.33 14.66L112.33 14.66Q112.76 14.84 113.26 14.84ZM125.69 9.74L125.69 8.74L127.83 8.74L127.83 6.97L127.83 6.97Q127.83 6.50 128.13 6.19L128.13 6.19L128.13 6.19Q128.44 5.88 128.91 5.88L128.91 5.88L131.66 5.88L131.66 6.89L129.30 6.89L129.30 6.89Q128.93 6.89 128.93 7.31L128.93 7.31L128.93 8.74L131.82 8.74L131.82 9.74L128.93 9.74L128.93 15.68L127.83 15.68L127.83 9.74L125.69 9.74ZM141.09 9.74L141.09 8.74L143.28 8.74L143.28 5.88L144.37 5.88L144.37 8.74L147.06 8.74L147.06 9.74L144.37 9.74L144.37 14.25L144.37 14.25Q144.37 14.67 144.75 14.67L144.75 14.67L146.72 14.67L146.72 15.68L144.35 15.68L144.35 15.68Q143.88 15.68 143.58 15.37L143.58 15.37L143.58 15.37Q143.28 15.06 143.28 14.59L143.28 14.59L143.28 9.74L141.09 9.74ZM164.00 8.74L162.90 15.68L160.89 15.68L160.05 9.24L159.88 9.24L159.04 15.68L157.02 15.68L155.93 8.74L157.05 8.74L157.98 15.18L158.14 15.18L158.96 8.74L160.97 8.74L161.78 15.18L161.95 15.18L162.88 8.74L164.00 8.74ZM177.51 14.59L177.51 14.50L177.34 14.50L177.34 14.50Q177.00 15.20 176.41 15.54L176.41 15.54L176.41 15.54Q175.81 15.88 175.15 15.88L175.15 15.88L175.15 15.88Q174.47 15.88 173.88 15.64L173.88 15.64L173.88 15.64Q173.29 15.41 172.85 14.96L172.85 14.96L172.85 14.96Q172.41 14.50 172.16 13.85L172.16 13.85L172.16 13.85Q171.91 13.19 171.91 12.32L171.91 12.32L171.91 12.10L171.91 12.10Q171.91 11.24 172.16 10.58L172.16 10.58L172.16 10.58Q172.41 9.93 172.85 9.47L172.85 9.47L172.85 9.47Q173.29 9.02 173.88 8.78L173.88 8.78L173.88 8.78Q174.47 8.54 175.13 8.54L175.13 8.54L175.13 8.54Q175.84 8.54 176.42 8.86L176.42 8.86L176.42 8.86Q177.00 9.17 177.34 9.83L177.34 9.83L177.51 9.83L177.51 8.74L178.60 8.74L178.60 14.25L178.60 14.25Q178.60 14.67 178.98 14.67L178.98 14.67L179.33 14.67L179.33 15.68L178.58 15.68L178.58 15.68Q178.11 15.68 177.81 15.37L177.81 15.37L177.81 15.37Q177.51 15.06 177.51 14.59L177.51 14.59ZM175.27 14.84L175.27 14.84L175.27 14.84Q175.76 14.84 176.17 14.66L176.17 14.66L176.17 14.66Q176.58 14.48 176.88 14.14L176.88 14.14L176.88 14.14Q177.17 13.80 177.34 13.33L177.34 13.33L177.34 13.33Q177.51 12.87 177.51 12.29L177.51 12.29L177.51 12.12L177.51 12.12Q177.51 11.56 177.34 11.09L177.34 11.09L177.34 11.09Q177.17 10.63 176.87 10.29L176.87 10.29L176.87 10.29Q176.57 9.95 176.16 9.77L176.16 9.77L176.16 9.77Q175.74 9.58 175.27 9.58L175.27 9.58L175.27 9.58Q174.78 9.58 174.37 9.76L174.37 9.76L174.37 9.76Q173.96 9.94 173.66 10.27L173.66 10.27L173.66 10.27Q173.36 10.60 173.19 11.07L173.19 11.07L173.19 11.07Q173.03 11.54 173.03 12.10L173.03 12.10L173.03 12.32L173.03 12.32Q173.03 13.51 173.65 14.17L173.65 14.17L173.65 14.17Q174.27 14.84 175.27 14.84ZM187.64 9.74L187.64 8.74L190.16 8.74L190.16 9.66L190.33 9.66L190.33 9.66Q190.60 9.09 191.09 8.81L191.09 8.81L191.09 8.81Q191.58 8.54 192.21 8.54L192.21 8.54L192.21 8.54Q193.26 8.54 193.90 9.23L193.90 9.23L193.90 9.23Q194.54 9.91 194.59 11.23L194.59 11.23L193.44 11.40L193.44 11.40Q193.44 10.43 192.98 10.00L192.98 10.00L192.98 10.00Q192.51 9.58 191.84 9.58L191.84 9.58L191.84 9.58Q191.41 9.58 191.09 9.74L191.09 9.74L191.09 9.74Q190.78 9.91 190.57 10.21L190.57 10.21L190.57 10.21Q190.36 10.50 190.26 10.89L190.26 10.89L190.26 10.89Q190.16 11.28 190.16 11.73L190.16 11.73L190.16 14.67L191.93 14.67L191.93 15.68L187.47 15.68L187.47 14.67L189.07 14.67L189.07 9.74L187.64 9.74ZM210.00 12.54L204.40 12.54L204.40 12.54Q204.44 13.58 205.04 14.21L205.04 14.21L205.04 14.21Q205.65 14.84 206.72 14.84L206.72 14.84L206.72 14.84Q207.21 14.84 207.58 14.73L207.58 14.73L207.58 14.73Q207.94 14.62 208.20 14.42L208.20 14.42L208.20 14.42Q208.46 14.22 208.62 13.96L208.62 13.96L208.62 13.96Q208.78 13.71 208.88 13.41L208.88 13.41L209.92 13.69L209.92 13.69Q209.62 14.66 208.83 15.27L208.83 15.27L208.83 15.27Q208.04 15.88 206.70 15.88L206.70 15.88L206.70 15.88Q205.95 15.88 205.33 15.62L205.33 15.62L205.33 15.62Q204.71 15.36 204.26 14.88L204.26 14.88L204.26 14.88Q203.81 14.41 203.56 13.75L203.56 13.75L203.56 13.75Q203.31 13.09 203.31 12.29L203.31 12.29L203.31 11.96L203.31 11.96Q203.31 11.23 203.57 10.60L203.57 10.60L203.57 10.60Q203.83 9.97 204.29 9.51L204.29 9.51L204.29 9.51Q204.75 9.06 205.37 8.80L205.37 8.80L205.37 8.80Q206.00 8.54 206.72 8.54L206.72 8.54L206.72 8.54Q207.58 8.54 208.20 8.86L208.20 8.86L208.20 8.86Q208.82 9.17 209.22 9.63L209.22 9.63L209.22 9.63Q209.62 10.09 209.81 10.64L209.81 10.64L209.81 10.64Q210.00 11.19 210.00 11.65L210.00 11.65L210.00 12.54ZM206.72 9.58L206.72 9.58L206.72 9.58Q206.26 9.58 205.86 9.72L205.86 9.72L205.86 9.72Q205.46 9.87 205.16 10.14L205.16 10.14L205.16 10.14Q204.86 10.40 204.67 10.76L204.67 10.76L204.67 10.76Q204.48 11.12 204.43 11.54L204.43 11.54L208.91 11.54L208.91 11.54Q208.88 11.09 208.69 10.72L208.69 10.72L208.69 10.72Q208.50 10.36 208.20 10.11L208.20 10.11L208.20 10.11Q207.90 9.86 207.52 9.72L207.52 9.72L207.52 9.72Q207.13 9.58 206.72 9.58Z"></path></g></svg>