<svg data-v-fde0c5aa="" xmlns="http://www.w3.org/2000/svg" viewBox="0 0 300 300" class="iconAboveSlogan"><!----><defs data-v-fde0c5aa=""><!----></defs><rect data-v-fde0c5aa="" fill="transparent" x="0" y="0" width="300px" height="300px" class="logo-background-square"></rect><defs data-v-fde0c5aa=""><linearGradient data-v-fde0c5aa="" gradientTransform="rotate(25)" id="86a0ead6-fe62-4ae6-912c-199c474843df" x1="0%" y1="0%" x2="100%" y2="0%"><stop data-v-fde0c5aa="" offset="0%" stop-color="#FFA300" stop-opacity="1"></stop><stop data-v-fde0c5aa="" offset="100%" stop-color="#DD4010" stop-opacity="1"></stop></linearGradient></defs><g data-v-fde0c5aa="" id="c865999b-5f35-40be-9248-b0b574958622" fill="url(#86a0ead6-fe62-4ae6-912c-199c474843df)" transform="matrix(3.0996663570404053,0,0,3.0996663570404053,18.07820688461923,146.34043444653145)"><path d="M6.38 14.06C7.66 14.06 8.30 13.44 8.30 12.19L8.30 5.36C8.30 4.06 7.66 3.42 6.38 3.42L0.62 3.42L0.62 14.06ZM5.88 10.96C5.88 11.24 5.74 11.38 5.46 11.38L3.04 11.38L3.04 6.09L5.46 6.09C5.74 6.09 5.88 6.23 5.88 6.51ZM11.90 14.06L11.90 3.42L9.48 3.42L9.48 14.06ZM21.15 14.06L21.15 5.28C21.15 4.03 20.50 3.42 19.19 3.42L15.06 3.42C13.76 3.42 13.10 4.03 13.10 5.28L13.10 14.06L15.51 14.06L15.51 9.69L18.73 9.69L18.73 14.06ZM18.73 7.45L15.51 7.45L15.51 6.44C15.51 6.16 15.65 6.02 15.93 6.02L18.31 6.02C18.59 6.02 18.73 6.16 18.73 6.44ZM28.64 14.06L28.64 11.38L24.79 11.38L24.79 3.42L22.37 3.42L22.37 14.06ZM34.71 10.96C34.71 11.24 34.57 11.38 34.29 11.38L32.27 11.38C31.99 11.38 31.85 11.24 31.85 10.96L31.85 6.51C31.85 6.23 31.99 6.09 32.27 6.09L34.29 6.09C34.57 6.09 34.71 6.23 34.71 6.51ZM35.20 14.06C36.48 14.06 37.11 13.44 37.11 12.19L37.11 5.36C37.11 4.06 36.48 3.42 35.20 3.42L31.35 3.42C30.07 3.42 29.43 4.06 29.43 5.36L29.43 12.19C29.43 13.44 30.07 14.06 31.35 14.06ZM45.56 14.06L45.56 7.57L41.85 7.57L41.85 9.79L43.20 9.79L43.20 11.38L41.08 11.38C40.80 11.38 40.66 11.24 40.66 10.96L40.66 6.51C40.66 6.23 40.80 6.09 41.08 6.09L45.47 6.09L45.47 3.42L40.15 3.42C38.88 3.42 38.23 4.06 38.23 5.36L38.23 12.19C38.23 13.44 38.88 14.06 40.15 14.06ZM57.12 14.06L59.12 3.42L56.56 3.42L55.50 10.29L54.15 3.42L51.27 3.42L49.85 10.29L48.86 3.42L46.19 3.42L48.15 14.06L51.53 14.06L52.64 7.53L53.72 14.06ZM67.75 14.06L67.75 5.28C67.75 4.03 67.09 3.42 65.79 3.42L61.66 3.42C60.35 3.42 59.70 4.03 59.70 5.28L59.70 14.06L62.10 14.06L62.10 9.69L65.32 9.69L65.32 14.06ZM65.32 7.45L62.10 7.45L62.10 6.44C62.10 6.16 62.24 6.02 62.52 6.02L64.90 6.02C65.18 6.02 65.32 6.16 65.32 6.44ZM74.24 7.18C74.24 7.46 74.10 7.60 73.82 7.60L71.39 7.60L71.39 6.02L73.82 6.02C74.10 6.02 74.24 6.16 74.24 6.44ZM76.72 14.06C76.68 13.92 76.65 13.79 76.65 13.41L76.65 10.26C76.65 9.42 76.29 8.92 75.45 8.74C76.23 8.60 76.62 8.05 76.62 7.08L76.62 5.40C76.62 4.07 75.98 3.42 74.69 3.42L68.96 3.42L68.96 14.06L71.39 14.06L71.39 9.86L73.82 9.86C74.10 9.86 74.24 10.00 74.24 10.28L74.24 13.50C74.24 13.76 74.27 13.93 74.31 14.06ZM84.50 14.06L84.50 11.38L80.26 11.38L80.26 9.81L83.90 9.81L83.90 7.56L80.26 7.56L80.26 6.05L84.48 6.05L84.48 3.42L77.83 3.42L77.83 14.06Z"></path></g><defs data-v-fde0c5aa=""><linearGradient data-v-fde0c5aa="" gradientTransform="rotate(25)" id="9bdca029-beca-4c64-acf8-cd9447ab323c" x1="0%" y1="0%" x2="100%" y2="0%"><stop data-v-fde0c5aa="" offset="0%" stop-color="#FFA300" stop-opacity="1"></stop><stop data-v-fde0c5aa="" offset="100%" stop-color="#DD4010" stop-opacity="1"></stop></linearGradient></defs><g data-v-fde0c5aa="" id="a10227b2-4f8b-4be7-acf2-67491b3e4b52" stroke="none" fill="url(#9bdca029-beca-4c64-acf8-cd9447ab323c)" transform="matrix(2.9299755096435547,0,0,2.9299755096435547,120.70024453314748,80.34178246552736)"><path d="M20 0v20H0V0h20zM3 3v14h14V3H3zm6 2.5v3H5v-3h4z"></path></g><defs data-v-fde0c5aa=""><linearGradient data-v-fde0c5aa="" gradientTransform="rotate(25)" id="205f964e-1d66-4cf6-8eae-f8161e332f33" x1="0%" y1="0%" x2="100%" y2="0%"><stop data-v-fde0c5aa="" offset="0%" stop-color="#A7A7A7" stop-opacity="1"></stop><stop data-v-fde0c5aa="" offset="100%" stop-color="#4F4F4F" stop-opacity="1"></stop></linearGradient></defs><g data-v-fde0c5aa="" id="5a6bafe9-b000-4f84-978a-66f2a13dc5bf" fill="url(#205f964e-1d66-4cf6-8eae-f8161e332f33)" transform="matrix(1.8190298080444336,0,0,1.8190298080444336,51.554104552698654,194.0826581618081)"><path d="M5.22 9.16L3.93 9.16L3.93 7.29L5.22 7.29ZM7.36 13.03L7.36 11.31L8.65 11.31L8.65 9.16L7.36 9.16L7.36 7.29L8.65 7.29L8.65 5.14L7.36 5.14L7.36 3.42L5.22 3.42L5.22 5.14L3.93 5.14L3.93 3.42L1.81 3.42L1.81 5.14L0.52 5.14L0.52 7.29L1.81 7.29L1.81 9.16L0.52 9.16L0.52 11.31L1.81 11.31L1.81 13.03L3.93 13.03L3.93 11.31L5.22 11.31L5.22 13.03ZM14.10 14.06L14.10 11.63L12.57 11.63C12.33 11.63 12.21 11.48 12.21 11.16L12.21 8.13L14.11 8.13L14.11 5.92L12.21 5.92L12.21 3.56L9.79 3.56L9.79 12.25C9.79 13.45 10.46 14.06 11.79 14.06ZM19.99 8.95C19.99 9.13 19.89 9.23 19.71 9.23L17.67 9.23C17.49 9.23 17.39 9.13 17.39 8.95L17.39 8.37C17.39 8.19 17.49 8.09 17.67 8.09L19.71 8.09C19.89 8.09 19.99 8.19 19.99 8.37ZM22.05 14.06L22.05 11.76L17.81 11.76C17.53 11.76 17.39 11.62 17.39 11.34L17.39 10.72C17.51 10.79 17.67 10.82 17.82 10.82L20.61 10.82C21.80 10.82 22.40 10.19 22.40 8.92L22.40 7.71C22.40 6.47 21.80 5.84 20.61 5.84L16.86 5.84C15.60 5.84 14.97 6.48 14.97 7.77L14.97 12.12C14.97 13.41 15.62 14.06 16.93 14.06ZM31.89 14.06L28.95 9.86L31.78 5.84L28.85 5.84L27.48 8.05L26.05 5.84L23.02 5.84L25.86 9.86L22.97 14.06L25.98 14.06L27.40 11.77L28.87 14.06ZM36.76 14.06L36.76 11.63L35.24 11.63C35 11.63 34.87 11.48 34.87 11.16L34.87 8.13L36.78 8.13L36.78 5.92L34.87 5.92L34.87 3.56L32.45 3.56L32.45 12.25C32.45 13.45 33.12 14.06 34.45 14.06ZM45.32 14.06L45.32 11.38L40.03 11.38L40.03 10.50C40.03 10.12 40.21 9.94 40.57 9.94L43.36 9.94C44.66 9.94 45.32 9.32 45.32 8.08L45.32 5.45C45.32 4.09 44.69 3.42 43.41 3.42L37.81 3.42L37.81 6.09L42.34 6.09C42.71 6.09 42.90 6.29 42.90 6.65L42.90 6.96C42.90 7.34 42.71 7.52 42.34 7.52L39.49 7.52C38.25 7.52 37.63 8.15 37.63 9.39L37.63 14.06ZM52.11 14.06C53.27 14.06 53.84 13.41 53.84 12.12L53.84 10.85C53.84 9.67 53.27 9.09 52.11 9.09L49.03 9.09C48.87 9.09 48.79 9.02 48.79 8.86L48.79 8.37C48.79 8.20 48.87 8.12 49.03 8.12L53.62 8.12L53.62 5.84L48.33 5.84C47.05 5.84 46.42 6.48 46.42 7.76L46.42 9.00C46.42 10.23 46.82 10.79 48.09 10.79L51.16 10.79C51.31 10.79 51.39 10.86 51.39 11.02L51.39 11.51C51.39 11.68 51.31 11.76 51.16 11.76L46.52 11.76L46.52 14.06ZM59.99 11.21C59.99 11.49 59.85 11.63 59.57 11.63L57.79 11.63C57.51 11.63 57.37 11.48 57.37 11.19L57.37 8.69C57.37 8.41 57.51 8.27 57.79 8.27L59.57 8.27C59.85 8.27 59.99 8.41 59.99 8.69ZM60.51 14.06C61.75 14.06 62.38 13.41 62.38 12.14L62.38 7.78C62.38 6.48 61.75 5.84 60.48 5.84L56.87 5.84C55.59 5.84 54.95 6.48 54.95 7.77L54.95 12.19C54.95 13.44 55.61 14.06 56.91 14.06ZM66.00 14.06L66.00 8.13L67.75 8.13L67.75 6.12L66.00 6.12L66.00 5.75C66.00 5.38 66.18 5.19 66.56 5.19L68.15 5.19L68.15 3.21L65.49 3.21C64.29 3.21 63.56 3.89 63.56 5.14L63.56 14.06ZM73.11 14.06L73.11 11.63L71.58 11.63C71.34 11.63 71.22 11.48 71.22 11.16L71.22 8.13L73.12 8.13L73.12 5.92L71.22 5.92L71.22 3.56L68.80 3.56L68.80 12.25C68.80 13.45 69.47 14.06 70.80 14.06ZM83.59 14.06L85.95 5.84L83.27 5.84L82.11 10.63L81.05 5.84L78.33 5.84L77.20 10.63L76.13 5.84L73.51 5.84L75.53 14.06L78.36 14.06L79.65 9.32L80.72 14.06ZM91.32 11.52C91.32 11.70 91.22 11.80 91.04 11.80L89.00 11.80C88.82 11.80 88.72 11.70 88.72 11.52L88.72 10.95C88.72 10.77 88.82 10.67 89.00 10.67L91.04 10.67C91.22 10.67 91.32 10.77 91.32 10.95ZM91.85 14.06C93.11 14.06 93.74 13.41 93.74 12.12L93.74 7.77C93.74 6.48 93.09 5.84 91.78 5.84L86.63 5.84L86.63 8.13L90.90 8.13C91.18 8.13 91.32 8.27 91.32 8.55L91.32 9.17C91.20 9.11 91.04 9.07 90.86 9.07L88.10 9.07C86.91 9.07 86.31 9.70 86.31 10.98L86.31 12.19C86.31 13.44 86.91 14.06 88.10 14.06ZM97.36 14.06L97.36 8.68C97.36 8.40 97.50 8.26 97.78 8.26L99.57 8.26L99.57 5.84L96.85 5.84C95.52 5.84 94.92 6.50 94.92 7.77L94.92 14.06ZM105.31 8.95C105.31 9.13 105.21 9.23 105.03 9.23L102.98 9.23C102.80 9.23 102.70 9.13 102.70 8.95L102.70 8.37C102.70 8.19 102.80 8.09 102.98 8.09L105.03 8.09C105.21 8.09 105.31 8.19 105.31 8.37ZM107.37 14.06L107.37 11.76L103.12 11.76C102.84 11.76 102.70 11.62 102.70 11.34L102.70 10.72C102.83 10.79 102.98 10.82 103.14 10.82L105.92 10.82C107.11 10.82 107.72 10.19 107.72 8.92L107.72 7.71C107.72 6.47 107.11 5.84 105.92 5.84L102.17 5.84C100.91 5.84 100.28 6.48 100.28 7.77L100.28 12.12C100.28 13.41 100.94 14.06 102.24 14.06Z"></path></g></svg>