<?xml version="1.0" encoding="UTF-8"?>
<svg id="Layer_2" data-name="Layer 2" xmlns="http://www.w3.org/2000/svg" viewBox="0 0 275.62 95.96">
  <defs>
    <style>
      .cls-1 {
        fill: #fff;
      }

      .cls-2 {
        fill: #1e355e;
      }

      .cls-3 {
        fill: #40ae49;
      }
    </style>
  </defs>
  <g id="Layer_1-2" data-name="Layer 1">
    <g>
      <rect class="cls-2" x=".28" y="62.01" width="274.53" height="33.95"/>
      <g>
        <path class="cls-3" d="M0,30.27c0-5.17,1.04-9.29,3.13-12.36s4.95-4.6,8.57-4.6c2.91,0,5.31,1.21,7.21,3.62V0h8V47.11h-7.21l-.39-3.53c-1.99,2.76-4.55,4.14-7.67,4.14-3.52,0-6.34-1.54-8.46-4.62-2.13-3.08-3.19-7.36-3.19-12.84Zm7.98,.66c0,3.11,.49,5.5,1.46,7.16,.97,1.66,2.39,2.49,4.25,2.49,2.47,0,4.21-1.16,5.22-3.47v-13.12c-.99-2.31-2.71-3.47-5.16-3.47-3.85,0-5.77,3.47-5.77,10.41Z"/>
        <path class="cls-2" d="M33.04,5.34c0-1.33,.4-2.42,1.2-3.28,.8-.86,1.89-1.29,3.27-1.29s2.45,.43,3.26,1.29c.81,.86,1.21,1.95,1.21,3.28s-.41,2.45-1.23,3.31c-.82,.86-1.9,1.29-3.24,1.29s-2.42-.43-3.24-1.29c-.82-.86-1.23-1.96-1.23-3.31Zm8.48,41.78h-8.01V13.93h8.01V47.11Z"/>
        <path class="cls-2" d="M65.4,47.11c-.37-.8-.63-1.79-.8-2.98-1.93,2.39-4.44,3.59-7.54,3.59-2.93,0-5.35-.94-7.27-2.82-1.92-1.88-2.88-4.25-2.88-7.12,0-3.52,1.17-6.22,3.52-8.1,2.35-1.88,5.74-2.83,10.17-2.85h3.67v-1.9c0-1.53-.35-2.76-1.06-3.68-.71-.92-1.83-1.38-3.35-1.38-1.34,0-2.4,.36-3.16,1.07s-1.15,1.7-1.15,2.94h-7.98c0-1.92,.53-3.7,1.6-5.34s2.58-2.92,4.53-3.85,4.14-1.4,6.57-1.4c3.68,0,6.6,1.03,8.76,3.08,2.16,2.05,3.24,4.94,3.24,8.67v14.39c.02,3.15,.41,5.53,1.19,7.15v.52h-8.06Zm-6.6-6.17c1.18,0,2.26-.29,3.26-.87,.99-.58,1.73-1.37,2.21-2.35v-5.71h-2.98c-3.99,0-6.12,1.53-6.38,4.6l-.03,.52c0,1.1,.35,2.01,1.05,2.73,.7,.72,1.66,1.07,2.87,1.07Z"/>
        <path class="cls-2" d="M86.82,47.11h-8.01V0h8.01V47.11Z"/>
        <path class="cls-2" d="M92.15,30.21c0-3.29,.57-6.23,1.71-8.8,1.14-2.58,2.78-4.57,4.93-5.98s4.63-2.12,7.47-2.12c4.03,0,7.32,1.37,9.87,4.11,2.55,2.74,3.97,6.46,4.26,11.17l.06,2.27c0,5.09-1.28,9.18-3.84,12.25-2.56,3.08-5.99,4.62-10.3,4.62s-7.74-1.53-10.31-4.6-3.85-7.24-3.85-12.51v-.4Zm7.98,.63c0,3.15,.53,5.57,1.6,7.23s2.59,2.5,4.58,2.5,3.44-.82,4.53-2.47c1.09-1.65,1.63-4.29,1.63-7.91,0-3.09-.54-5.49-1.63-7.19-1.09-1.7-2.61-2.55-4.58-2.55s-3.46,.85-4.53,2.53c-1.07,1.69-1.6,4.31-1.6,7.85Z"/>
        <path class="cls-2" d="M124.2,30.27c0-5.09,1.09-9.19,3.27-12.3,2.18-3.11,5.12-4.66,8.82-4.66,3.28,0,5.83,1.25,7.65,3.74l.33-3.13h7.23V46.01c0,2.9-.59,5.43-1.78,7.58-1.19,2.15-2.86,3.78-5.01,4.91-2.15,1.12-4.67,1.69-7.56,1.69-2.19,0-4.32-.49-6.4-1.46-2.08-.97-3.65-2.22-4.72-3.76l3.53-5.4c1.99,2.47,4.4,3.71,7.23,3.71,2.12,0,3.76-.63,4.94-1.89,1.18-1.26,1.77-3.04,1.77-5.35v-1.78c-1.84,2.31-4.26,3.47-7.26,3.47-3.59,0-6.49-1.56-8.71-4.68-2.22-3.12-3.33-7.25-3.33-12.41v-.37Zm7.98,.66c0,3.01,.54,5.37,1.63,7.08s2.58,2.57,4.47,2.57c2.43,0,4.17-1.01,5.22-3.04v-13.98c-1.07-2.03-2.79-3.04-5.16-3.04-1.91,0-3.42,.87-4.51,2.61-1.09,1.74-1.64,4.34-1.64,7.8Z"/>
        <path class="cls-3" d="M183.61,35.06l3.92-21.13h7.7l-7.62,33.19h-6.68l-5.66-20.89-5.66,20.89h-6.65l-7.62-33.19h7.7l3.89,21.1,5.47-21.1h5.77l5.44,21.13Z"/>
        <path class="cls-2" d="M216.48,47.11c-.37-.8-.63-1.79-.8-2.98-1.93,2.39-4.44,3.59-7.54,3.59-2.93,0-5.35-.94-7.27-2.82-1.92-1.88-2.88-4.25-2.88-7.12,0-3.52,1.17-6.22,3.52-8.1,2.35-1.88,5.74-2.83,10.17-2.85h3.67v-1.9c0-1.53-.35-2.76-1.06-3.68-.71-.92-1.83-1.38-3.35-1.38-1.34,0-2.4,.36-3.16,1.07s-1.15,1.7-1.15,2.94h-7.98c0-1.92,.53-3.7,1.6-5.34s2.58-2.92,4.53-3.85,4.14-1.4,6.57-1.4c3.68,0,6.6,1.03,8.76,3.08,2.16,2.05,3.24,4.94,3.24,8.67v14.39c.02,3.15,.41,5.53,1.19,7.15v.52h-8.06Zm-6.6-6.17c1.18,0,2.26-.29,3.26-.87,.99-.58,1.73-1.37,2.21-2.35v-5.71h-2.98c-3.99,0-6.12,1.53-6.38,4.6l-.03,.52c0,1.1,.35,2.01,1.05,2.73,.7,.72,1.66,1.07,2.87,1.07Z"/>
        <path class="cls-2" d="M246.27,22.24c-1.09-.16-2.04-.25-2.87-.25-3.02,0-5,1.13-5.94,3.4v21.72h-7.98V13.93h7.54l.22,3.96c1.6-3.05,3.82-4.57,6.65-4.57,.88,0,1.71,.13,2.48,.4l-.11,8.53Z"/>
        <path class="cls-2" d="M263.33,47.73c-4.38,0-7.95-1.49-10.7-4.48-2.75-2.99-4.13-6.96-4.13-11.93v-.86c0-3.33,.58-6.31,1.74-8.94,1.16-2.63,2.8-4.65,4.93-6.07s4.55-2.13,7.27-2.13c4.09,0,7.3,1.43,9.65,4.29,2.35,2.86,3.52,6.92,3.52,12.18v3.62h-19.02c.26,2.17,1.04,3.91,2.33,5.21,1.3,1.31,2.94,1.96,4.93,1.96,3.07,0,5.47-1.24,7.21-3.71l3.92,4.88c-1.2,1.88-2.82,3.35-4.86,4.4-2.04,1.05-4.31,1.58-6.79,1.58Zm-.91-27.27c-1.58,0-2.87,.6-3.85,1.79s-1.62,2.9-1.89,5.11h11.1v-.71c-.04-1.97-.52-3.5-1.44-4.58-.92-1.08-2.23-1.62-3.92-1.62Z"/>
      </g>
      <g>
        <path class="cls-1" d="M17.56,71.36h-6.38v19.26H6.9v-19.26H.61v-3.86H17.56v3.86Z"/>
        <path class="cls-1" d="M32.52,80.6h-8.23v6.19h9.66v3.83h-13.95v-23.12h13.92v3.86h-9.63v5.51h8.23v3.73Z"/>
        <path class="cls-1" d="M43.91,75.47l3.9-7.97h4.93l-6.06,11.47,6.22,11.66h-4.99l-4-8.1-4,8.1h-4.99l6.22-11.66-6.06-11.47h4.93l3.9,7.97Z"/>
        <path class="cls-1" d="M70.72,71.36h-6.38v19.26h-4.29v-19.26h-6.29v-3.86h16.95v3.86Z"/>
        <path class="cls-3" d="M95.26,71.36h-6.38v19.26h-4.29v-19.26h-6.29v-3.86h16.95v3.86Z"/>
        <path class="cls-3" d="M114.4,79.58c0,2.28-.36,4.27-1.09,5.99-.72,1.71-1.76,3.04-3.11,3.97-1.35,.93-2.89,1.4-4.64,1.4s-3.26-.46-4.62-1.38c-1.35-.92-2.4-2.24-3.14-3.95-.74-1.71-1.12-3.68-1.13-5.9v-1.14c0-2.28,.37-4.28,1.11-6.01s1.78-3.06,3.13-3.99c1.35-.93,2.89-1.39,4.62-1.39s3.28,.46,4.62,1.39c1.35,.93,2.39,2.25,3.13,3.99s1.11,3.73,1.11,6v1.03Zm-4.34-1.05c0-2.42-.39-4.27-1.17-5.53-.78-1.26-1.9-1.89-3.34-1.89s-2.55,.62-3.33,1.87c-.78,1.24-1.18,3.07-1.19,5.47v1.13c0,2.36,.39,4.19,1.17,5.49,.78,1.3,1.91,1.95,3.37,1.95s2.54-.63,3.32-1.88,1.16-3.08,1.17-5.49v-1.13Z"/>
        <path class="cls-1" d="M135.6,84.55c0-.9-.29-1.59-.86-2.07-.57-.48-1.6-.99-3.09-1.52s-2.66-1.06-3.53-1.58c-2.36-1.42-3.54-3.33-3.54-5.73,0-1.25,.32-2.36,.95-3.34,.63-.98,1.54-1.74,2.73-2.29,1.19-.55,2.52-.83,4-.83s2.81,.3,3.97,.9,2.07,1.44,2.71,2.53c.64,1.09,.96,2.33,.96,3.72h-4.29c0-1.06-.3-1.88-.9-2.47-.6-.59-1.44-.88-2.53-.88s-1.86,.25-2.44,.74c-.58,.49-.87,1.14-.87,1.95,0,.75,.34,1.38,1.02,1.89,.68,.51,1.68,.98,3.01,1.43,2.44,.82,4.22,1.83,5.33,3.03,1.12,1.21,1.67,2.71,1.67,4.51,0,2-.68,3.57-2.04,4.71-1.36,1.14-3.2,1.71-5.5,1.71-1.6,0-3.06-.33-4.37-.98-1.32-.65-2.32-1.54-3.01-2.68-.69-1.13-1.04-2.45-1.04-3.94h4.3c0,2.55,1.37,3.83,4.12,3.83,1.02,0,1.82-.23,2.39-.69s.86-1.1,.86-1.93Z"/>
        <path class="cls-1" d="M159.89,79.58c0,2.28-.36,4.27-1.09,5.99-.72,1.71-1.76,3.04-3.11,3.97-1.35,.93-2.89,1.4-4.64,1.4s-3.26-.46-4.62-1.38c-1.35-.92-2.4-2.24-3.14-3.95-.74-1.71-1.12-3.68-1.13-5.9v-1.14c0-2.28,.37-4.28,1.11-6.01s1.78-3.06,3.13-3.99c1.35-.93,2.89-1.39,4.62-1.39s3.28,.46,4.62,1.39c1.35,.93,2.39,2.25,3.13,3.99s1.11,3.73,1.11,6v1.03Zm-4.34-1.05c0-2.42-.39-4.27-1.17-5.53-.78-1.26-1.9-1.89-3.34-1.89s-2.55,.62-3.33,1.87c-.78,1.24-1.18,3.07-1.19,5.47v1.13c0,2.36,.39,4.19,1.17,5.49,.78,1.3,1.91,1.95,3.37,1.95s2.54-.63,3.32-1.88,1.16-3.08,1.17-5.49v-1.13Z"/>
        <path class="cls-1" d="M175.53,81.17h-8.23v9.45h-4.29v-23.12h13.55v3.86h-9.26v5.97h8.23v3.84Z"/>
        <path class="cls-1" d="M195,71.36h-6.38v19.26h-4.29v-19.26h-6.29v-3.86h16.95v3.86Z"/>
        <path class="cls-1" d="M213.86,83.95l2.8-16.45h4.27l-4.62,23.12h-4.32l-3.39-15.47-3.39,15.47h-4.32l-4.62-23.12h4.27l2.82,16.42,3.43-16.42h3.63l3.42,16.45Z"/>
        <path class="cls-1" d="M234.38,85.85h-7.52l-1.43,4.76h-4.56l7.75-23.12h3.97l7.79,23.12h-4.56l-1.44-4.76Zm-6.36-3.86h5.2l-2.62-8.65-2.59,8.65Z"/>
        <path class="cls-1" d="M250.04,82.15h-3.42v8.46h-4.29v-23.12h7.73c2.46,0,4.35,.61,5.69,1.83,1.33,1.22,2,2.94,2,5.16,0,1.58-.31,2.89-.92,3.95s-1.55,1.89-2.79,2.52l4.5,9.45v.22h-4.6l-3.9-8.46Zm-3.42-3.86h3.46c1.08,0,1.91-.3,2.5-.91,.59-.61,.89-1.45,.89-2.52s-.28-1.95-.84-2.57c-.56-.62-1.41-.94-2.57-.94h-3.44v6.94Z"/>
        <path class="cls-1" d="M273.53,80.6h-8.23v6.19h9.66v3.83h-13.95v-23.12h13.92v3.86h-9.63v5.51h8.23v3.73Z"/>
      </g>
    </g>
  </g>
</svg>