<?xml version="1.0" encoding="UTF-8"?>
<svg id="Layer_2" data-name="Layer 2" xmlns="http://www.w3.org/2000/svg" viewBox="0 0 276 95.3">
  <defs>
    <style>
      .cls-1 {
        fill: #fff;
      }
    </style>
  </defs>
  <g id="Layer_1-2" data-name="Layer 1">
    <g>
      <path class="cls-1" d="M11.67,47.79c3.13,0,5.69-1.38,7.69-4.15l.39,3.53h7.22V0h-8.02V16.96c-1.9-2.42-4.3-3.62-7.22-3.62-3.63,0-6.49,1.54-8.58,4.61-2.09,3.07-3.14,7.2-3.14,12.38,0,5.49,1.06,9.77,3.19,12.85,2.13,3.08,4.95,4.62,8.47,4.62Zm2.1-27.24c2.45,0,4.17,1.16,5.17,3.48v13.14c-1.01,2.32-2.76,3.48-5.23,3.48-1.86,0-3.28-.83-4.26-2.49-.98-1.66-1.47-4.05-1.47-7.17,0-6.95,1.93-10.43,5.78-10.43Z"/>
      <path class="cls-1" d="M37.57,9.95c1.34,0,2.43-.43,3.25-1.29,.82-.86,1.23-1.97,1.23-3.32s-.41-2.43-1.22-3.29c-.81-.86-1.9-1.29-3.26-1.29s-2.47,.43-3.28,1.29c-.8,.86-1.2,1.96-1.2,3.29s.41,2.46,1.23,3.32c.82,.86,1.9,1.29,3.25,1.29Z"/>
      <rect class="cls-1" x="33.56" y="13.95" width="8.02" height="33.23"/>
      <path class="cls-1" d="M60.68,26.88c-4.44,.02-7.84,.97-10.19,2.86-2.35,1.88-3.52,4.59-3.52,8.11,0,2.87,.96,5.24,2.89,7.13,1.93,1.88,4.35,2.83,7.28,2.83,3.1,0,5.61-1.2,7.55-3.59,.17,1.19,.43,2.18,.8,2.98h8.07v-.52c-.77-1.62-1.17-4-1.19-7.16v-14.41c0-3.73-1.08-6.62-3.25-8.68-2.17-2.06-5.09-3.09-8.78-3.09-2.43,0-4.63,.47-6.58,1.4-1.95,.93-3.46,2.22-4.53,3.85s-1.6,3.42-1.6,5.34h7.99c0-1.25,.38-2.23,1.15-2.95,.76-.72,1.82-1.07,3.17-1.07,1.53,0,2.65,.46,3.36,1.38,.71,.92,1.06,2.15,1.06,3.69v1.9h-3.68Zm3.68,10.9c-.48,.98-1.22,1.77-2.21,2.35-1,.58-2.08,.88-3.26,.88s-2.18-.36-2.88-1.08c-.7-.72-1.05-1.63-1.05-2.73l.03-.52c.26-3.07,2.39-4.61,6.39-4.61h2.99v5.71Z"/>
      <rect class="cls-1" x="78.92" width="8.02" height="47.18"/>
      <path class="cls-1" d="M106.46,47.79c4.31,0,7.75-1.54,10.31-4.62,2.56-3.08,3.84-7.17,3.84-12.27l-.06-2.27c-.29-4.71-1.72-8.44-4.27-11.18-2.55-2.74-5.85-4.12-9.88-4.12-2.84,0-5.33,.71-7.48,2.12-2.15,1.41-3.79,3.41-4.93,5.99-1.14,2.58-1.71,5.52-1.71,8.81v.4c0,5.28,1.28,9.46,3.86,12.53,2.57,3.07,6.01,4.61,10.32,4.61Zm-4.59-24.77c1.07-1.69,2.58-2.54,4.53-2.54s3.5,.85,4.59,2.55c1.09,1.7,1.63,4.1,1.63,7.2,0,3.63-.54,6.27-1.63,7.92-1.09,1.65-2.6,2.48-4.53,2.48s-3.52-.84-4.59-2.51-1.6-4.09-1.6-7.24c0-3.55,.53-6.17,1.6-7.86Z"/>
      <path class="cls-1" d="M136.42,47.79c3,0,5.43-1.16,7.27-3.47v1.78c0,2.31-.59,4.1-1.77,5.36-1.18,1.26-2.83,1.89-4.95,1.89-2.84,0-5.25-1.24-7.24-3.72l-3.54,5.41c1.07,1.54,2.64,2.79,4.73,3.76,2.08,.97,4.22,1.46,6.41,1.46,2.89,0,5.42-.56,7.57-1.69,2.16-1.13,3.83-2.76,5.02-4.92,1.19-2.15,1.78-4.68,1.78-7.59V13.95h-7.24l-.33,3.13c-1.82-2.5-4.38-3.75-7.66-3.75-3.7,0-6.65,1.56-8.83,4.67-2.18,3.11-3.27,7.22-3.27,12.32v.37c0,5.16,1.11,9.3,3.33,12.42,2.22,3.12,5.13,4.68,8.72,4.68Zm-2.42-24.63c1.1-1.74,2.6-2.61,4.52-2.61,2.38,0,4.1,1.02,5.17,3.05v14c-1.05,2.03-2.79,3.05-5.23,3.05-1.9,0-3.39-.86-4.48-2.57s-1.63-4.08-1.63-7.09c0-3.47,.55-6.07,1.64-7.81Z"/>
      <polygon class="cls-1" points="169.84 47.18 175.51 26.26 181.18 47.18 187.87 47.18 195.5 13.95 187.79 13.95 183.86 35.11 178.41 13.95 172.64 13.95 167.16 35.08 163.27 13.95 155.55 13.95 163.18 47.18 169.84 47.18"/>
      <path class="cls-1" d="M211.97,26.88c-4.44,.02-7.84,.97-10.19,2.86-2.35,1.88-3.52,4.59-3.52,8.11,0,2.87,.96,5.24,2.89,7.13,1.93,1.88,4.35,2.83,7.28,2.83,3.1,0,5.61-1.2,7.55-3.59,.17,1.19,.43,2.18,.8,2.98h8.07v-.52c-.77-1.62-1.17-4-1.19-7.16v-14.41c0-3.73-1.08-6.62-3.25-8.68-2.17-2.06-5.09-3.09-8.78-3.09-2.43,0-4.63,.47-6.58,1.4-1.95,.93-3.46,2.22-4.53,3.85s-1.6,3.42-1.6,5.34h7.99c0-1.25,.38-2.23,1.15-2.95,.76-.72,1.82-1.07,3.17-1.07,1.53,0,2.65,.46,3.36,1.38,.71,.92,1.06,2.15,1.06,3.69v1.9h-3.68Zm3.68,10.9c-.48,.98-1.22,1.77-2.21,2.35-1,.58-2.08,.88-3.26,.88s-2.17-.36-2.88-1.08c-.7-.72-1.05-1.63-1.05-2.73l.03-.52c.26-3.07,2.39-4.61,6.39-4.61h2.99v5.71Z"/>
      <path class="cls-1" d="M237.79,25.43c.94-2.27,2.92-3.41,5.94-3.41,.83,0,1.79,.08,2.88,.25l.11-8.54c-.77-.27-1.6-.4-2.49-.4-2.84,0-5.06,1.53-6.66,4.58l-.22-3.96h-7.55V47.18h7.99V25.43Z"/>
      <path class="cls-1" d="M272.48,17.63c-2.35-2.87-5.57-4.3-9.66-4.3-2.73,0-5.16,.71-7.28,2.13-2.13,1.42-3.77,3.45-4.93,6.08-1.16,2.63-1.74,5.62-1.74,8.95v.86c0,4.98,1.38,8.96,4.13,11.95,2.76,2.99,6.33,4.48,10.71,4.48,2.49,0,4.76-.53,6.8-1.58,2.05-1.06,3.67-2.52,4.87-4.41l-3.93-4.88c-1.73,2.48-4.14,3.72-7.22,3.72-1.99,0-3.64-.66-4.93-1.97-1.3-1.31-2.08-3.05-2.34-5.22h19.05v-3.62c0-5.26-1.18-9.33-3.52-12.19Zm-4.33,9.77h-11.11c.28-2.22,.91-3.93,1.89-5.12s2.27-1.79,3.86-1.79c1.69,0,3,.54,3.93,1.62,.92,1.08,1.4,2.61,1.44,4.58v.71Z"/>
      <path class="cls-1" d="M0,95.3H276V62.53H0v32.78Zm257.6-27.61h13.51v3.75h-9.35v5.35h7.99v3.62h-7.99v6.01h9.38v3.71h-13.54v-22.44Zm-18.13,0h7.5c2.39,0,4.23,.59,5.52,1.77,1.29,1.18,1.94,2.85,1.94,5.01,0,1.53-.3,2.81-.89,3.83s-1.5,1.84-2.71,2.44l4.37,9.17v.22h-4.47l-3.79-8.22h-3.32v8.22h-4.16v-22.44Zm-9.45,0l7.56,22.44h-4.43l-1.4-4.62h-7.3l-1.39,4.62h-4.43l7.52-22.44h3.86Zm-31.09,0l2.73,15.94,3.33-15.94h3.52l3.32,15.97,2.72-15.97h4.15l-4.48,22.44h-4.19l-3.29-15.01-3.29,15.01h-4.19l-4.48-22.44h4.15Zm-21.86,0h16.45v3.75h-6.19v18.7h-4.16v-18.7h-6.1v-3.75Zm-14.59,0h13.15v3.75h-8.99v5.79h7.99v3.73h-7.99v9.17h-4.16v-22.44Zm-20.22,10.74c0-2.21,.36-4.15,1.07-5.83,.72-1.68,1.73-2.97,3.04-3.87,1.31-.9,2.8-1.35,4.49-1.35s3.18,.45,4.49,1.35c1.31,.9,2.32,2.19,3.04,3.87,.72,1.68,1.07,3.62,1.07,5.82v1c0,2.21-.35,4.15-1.05,5.81-.7,1.66-1.71,2.95-3.02,3.85-1.31,.9-2.81,1.36-4.5,1.36s-3.17-.45-4.48-1.34c-1.31-.89-2.33-2.17-3.05-3.83-.72-1.66-1.09-3.57-1.1-5.73v-1.11Zm-7.21,3.8c-.55-.47-1.55-.96-3-1.48-1.44-.52-2.58-1.03-3.43-1.53-2.29-1.38-3.44-3.23-3.44-5.56,0-1.21,.31-2.29,.92-3.24,.61-.95,1.5-1.69,2.65-2.23,1.15-.53,2.44-.8,3.88-.8s2.73,.29,3.86,.87c1.13,.58,2,1.4,2.63,2.46,.62,1.06,.94,2.26,.94,3.61h-4.16c0-1.03-.29-1.83-.87-2.4-.58-.57-1.4-.86-2.46-.86s-1.81,.24-2.37,.72c-.56,.48-.85,1.11-.85,1.89,0,.73,.33,1.34,.99,1.83,.66,.49,1.64,.96,2.92,1.39,2.37,.79,4.09,1.77,5.17,2.94,1.08,1.17,1.62,2.63,1.62,4.38,0,1.94-.66,3.47-1.98,4.57-1.32,1.1-3.1,1.66-5.34,1.66-1.55,0-2.97-.32-4.24-.95-1.28-.63-2.25-1.5-2.92-2.6-.67-1.1-1.01-2.37-1.01-3.82h4.18c0,2.48,1.33,3.71,4,3.71,.99,0,1.76-.22,2.32-.67s.83-1.07,.83-1.87c0-.87-.28-1.54-.83-2.01Zm-36.94-3.8c0-2.21,.36-4.15,1.07-5.83,.72-1.68,1.73-2.97,3.04-3.87,1.31-.9,2.8-1.35,4.49-1.35s3.18,.45,4.49,1.35c1.31,.9,2.32,2.19,3.04,3.87,.72,1.68,1.07,3.62,1.07,5.82v1c0,2.21-.35,4.15-1.05,5.81-.7,1.66-1.71,2.95-3.02,3.85-1.31,.9-2.81,1.36-4.5,1.36s-3.17-.45-4.48-1.34c-1.31-.89-2.33-2.17-3.05-3.83-.72-1.66-1.09-3.57-1.1-5.73v-1.11Zm-17.83-10.74h16.45v3.75h-6.19v18.7h-4.16v-18.7h-6.1v-3.75Zm-23.82,0h16.45v3.75h-6.19v18.7h-4.16v-18.7h-6.1v-3.75Zm-18.14,0h4.79l3.79,7.74,3.79-7.74h4.79l-5.88,11.13,6.03,11.31h-4.84l-3.88-7.86-3.88,7.86h-4.84l6.03-11.31-5.88-11.13Zm-14.63,0h13.51v3.75h-9.35v5.35h7.99v3.62h-7.99v6.01h9.38v3.71h-13.54v-22.44Zm-18.82,0H21.31v3.75h-6.19v18.7h-4.16v-18.7H4.86v-3.75Z"/>
      <path class="cls-1" d="M249.42,77.29c.57-.59,.86-1.4,.86-2.44s-.27-1.89-.81-2.5c-.54-.61-1.37-.91-2.49-.91h-3.34v6.74h3.36c1.04,0,1.85-.3,2.43-.89Z"/>
      <polygon class="cls-1" points="228.1 73.36 225.59 81.76 230.63 81.76 228.1 73.36"/>
      <path class="cls-1" d="M150.89,86.65c1.4,0,2.47-.61,3.22-1.83,.75-1.22,1.13-2.99,1.14-5.33v-1.09c0-2.35-.38-4.14-1.14-5.36-.76-1.22-1.84-1.83-3.25-1.83s-2.47,.6-3.23,1.81c-.76,1.21-1.14,2.98-1.15,5.31v1.09c0,2.29,.38,4.07,1.14,5.33,.76,1.26,1.85,1.9,3.27,1.9Z"/>
      <path class="cls-1" d="M106.73,86.65c1.4,0,2.47-.61,3.22-1.83,.75-1.22,1.13-2.99,1.14-5.33v-1.09c0-2.35-.38-4.14-1.14-5.36-.76-1.22-1.84-1.83-3.25-1.83s-2.47,.6-3.23,1.81c-.76,1.21-1.14,2.98-1.15,5.31v1.09c0,2.29,.38,4.07,1.14,5.33,.76,1.26,1.85,1.9,3.27,1.9Z"/>
    </g>
  </g>
</svg>