<?xml version="1.0" encoding="UTF-8"?>
<svg id="Layer_2" data-name="Layer 2" xmlns="http://www.w3.org/2000/svg" viewBox="0 0 450 450">
  <defs>
    <style>
      .cls-1 {
        fill: #1c1c1c;
      }
    </style>
  </defs>
  <g id="Layer_1-2" data-name="Layer 1">
    <g>
      <path class="cls-1" d="M250.57,435.62c2.11,0,3.73-.92,4.86-2.76,1.13-1.84,1.7-4.52,1.72-8.05v-1.65c0-3.56-.57-6.26-1.72-8.11-1.15-1.85-2.78-2.77-4.91-2.77s-3.74,.91-4.88,2.74c-1.15,1.83-1.73,4.5-1.74,8.02v1.65c0,3.46,.57,6.15,1.72,8.06,1.15,1.91,2.79,2.87,4.95,2.87Z"/>
      <path class="cls-1" d="M180.83,435.62c2.11,0,3.73-.92,4.86-2.76,1.13-1.84,1.7-4.52,1.72-8.05v-1.65c0-3.56-.57-6.26-1.72-8.11-1.15-1.85-2.78-2.77-4.91-2.77s-3.74,.91-4.88,2.74c-1.15,1.83-1.73,4.5-1.74,8.02v1.65c0,3.46,.57,6.15,1.72,8.06,1.15,1.91,2.79,2.87,4.95,2.87Z"/>
      <path class="cls-1" d="M407.01,421.47c.87-.89,1.3-2.12,1.3-3.69s-.41-2.86-1.23-3.77c-.82-.92-2.07-1.37-3.76-1.37h-5.05v10.18h5.07c1.58,0,2.8-.45,3.67-1.34Z"/>
      <polygon class="cls-1" points="373.28 415.54 369.49 428.23 377.12 428.23 373.28 415.54"/>
      <path class="cls-1" d="M0,450H450v-52.15H0v52.15Zm420.89-43.03h20.42v5.66h-14.13v8.08h12.07v5.47h-12.07v9.08h14.17v5.61h-20.46v-33.91Zm-28.91,0h11.34c3.6,0,6.39,.89,8.34,2.68,1.96,1.79,2.93,4.31,2.93,7.57,0,2.31-.45,4.24-1.35,5.79-.9,1.55-2.27,2.78-4.1,3.69l6.6,13.86v.33h-6.75l-5.72-12.41h-5.01v12.41h-6.29v-33.91Zm-21.61,0h5.83l11.42,33.91h-6.69l-2.12-6.99h-11.03l-2.1,6.99h-6.69l11.36-33.91Zm-42.66,0l4.13,24.08,5.03-24.08h5.32l5.01,24.13,4.11-24.13h6.27l-6.77,33.91h-6.33l-4.97-22.69-4.97,22.69h-6.33l-6.77-33.91h6.27Zm-34.54,0h24.86v5.66h-9.35v28.25h-6.29v-28.25h-9.22v-5.66Zm-23.56,0h19.87v5.66h-13.58v8.76h12.07v5.64h-12.07v13.86h-6.29v-33.91Zm-32.07,16.23c0-3.34,.54-6.28,1.62-8.82,1.08-2.54,2.61-4.49,4.59-5.85,1.98-1.36,4.24-2.04,6.78-2.04s4.8,.68,6.78,2.04c1.98,1.36,3.51,3.31,4.59,5.85,1.08,2.54,1.62,5.47,1.62,8.79v1.51c0,3.34-.53,6.27-1.59,8.78-1.06,2.52-2.58,4.46-4.56,5.82-1.98,1.37-4.24,2.05-6.8,2.05s-4.79-.68-6.77-2.03c-1.98-1.35-3.52-3.28-4.61-5.79-1.09-2.51-1.64-5.39-1.66-8.65v-1.68Zm-12.41,5.74c-.84-.71-2.35-1.45-4.53-2.24s-3.91-1.56-5.18-2.32c-3.47-2.08-5.2-4.88-5.2-8.41,0-1.83,.46-3.47,1.39-4.9,.93-1.44,2.26-2.56,4-3.37,1.74-.81,3.69-1.21,5.86-1.21s4.12,.44,5.83,1.32c1.7,.88,3.03,2.12,3.97,3.72s1.41,3.42,1.41,5.45h-6.29c0-1.55-.44-2.76-1.32-3.62-.88-.86-2.12-1.29-3.71-1.29s-2.73,.36-3.58,1.08c-.85,.72-1.28,1.67-1.28,2.85,0,1.1,.5,2.03,1.5,2.77,1,.75,2.47,1.44,4.41,2.1,3.58,1.2,6.18,2.68,7.82,4.45,1.64,1.77,2.45,3.97,2.45,6.61,0,2.93-1,5.24-3,6.91-2,1.67-4.69,2.5-8.07,2.5-2.35,0-4.49-.48-6.42-1.43-1.93-.96-3.4-2.26-4.41-3.93-1.01-1.66-1.52-3.59-1.52-5.78h6.31c0,3.74,2.01,5.61,6.04,5.61,1.5,0,2.66-.34,3.5-1.01,.84-.68,1.26-1.62,1.26-2.83,0-1.32-.42-2.33-1.26-3.04Zm-57.33-5.74c0-3.34,.54-6.28,1.62-8.82,1.08-2.54,2.61-4.49,4.59-5.85,1.98-1.36,4.24-2.04,6.78-2.04s4.8,.68,6.78,2.04c1.98,1.36,3.51,3.31,4.59,5.85,1.08,2.54,1.62,5.47,1.62,8.79v1.51c0,3.34-.53,6.27-1.59,8.78-1.06,2.52-2.58,4.46-4.56,5.82-1.98,1.37-4.24,2.05-6.8,2.05s-4.79-.68-6.77-2.03c-1.98-1.35-3.52-3.28-4.61-5.79-1.09-2.51-1.64-5.39-1.66-8.65v-1.68Zm-28.44-16.23h24.86v5.66h-9.35v28.25h-6.29v-28.25h-9.22v-5.66Zm-48.19,0h24.86v5.66h-9.35v28.25h-6.29v-28.25h-9.22v-5.66Zm-28.93,0h7.23l5.72,11.69,5.72-11.69h7.23l-8.89,16.82,9.12,17.1h-7.32l-5.87-11.88-5.87,11.88h-7.32l9.12-17.1-8.89-16.82Zm-23.62,0h20.42v5.66h-14.13v8.08h12.07v5.47h-12.07v9.08h14.17v5.61h-20.46v-33.91Zm-29.95,0h24.86v5.66h-9.35v28.25h-6.29v-28.25H8.65v-5.66Z"/>
      <path class="cls-1" d="M34.6,141.76c9.29,0,16.89-4.1,22.79-12.3l1.15,10.48h21.4V0h-23.78V50.29c-5.63-7.17-12.76-10.75-21.4-10.75-10.77,0-19.26,4.56-25.46,13.67C3.1,62.32,0,74.56,0,89.92c0,16.28,3.16,28.99,9.47,38.13,6.31,9.14,14.69,13.71,25.13,13.71Zm6.23-80.81c7.27,0,12.38,3.44,15.33,10.31v38.96c-3.01,6.87-8.17,10.31-15.5,10.31-5.52,0-9.73-2.46-12.63-7.39-2.9-4.93-4.35-12.01-4.35-21.26,0-20.62,5.71-30.93,17.14-30.93Z"/>
      <path class="cls-1" d="M111.43,29.52c3.99,0,7.2-1.28,9.63-3.83,2.43-2.55,3.65-5.83,3.65-9.84s-1.2-7.2-3.61-9.75c-2.41-2.55-5.63-3.83-9.68-3.83s-7.34,1.28-9.72,3.83c-2.38,2.55-3.57,5.8-3.57,9.75s1.21,7.29,3.65,9.84c2.43,2.55,5.64,3.83,9.64,3.83Z"/>
      <rect class="cls-1" x="99.54" y="41.36" width="23.78" height="98.58"/>
      <path class="cls-1" d="M179.98,79.72c-13.17,.06-23.25,2.89-30.22,8.47s-10.45,13.61-10.45,24.05c0,8.5,2.85,15.55,8.57,21.14,5.71,5.59,12.91,8.38,21.61,8.38,9.18,0,16.65-3.55,22.39-10.66,.49,3.52,1.28,6.47,2.38,8.84h23.94v-1.55c-2.3-4.8-3.47-11.87-3.53-21.23v-42.73c0-11.05-3.21-19.63-9.63-25.74-6.42-6.1-15.1-9.16-26.03-9.16-7.22,0-13.72,1.38-19.52,4.15-5.79,2.76-10.28,6.57-13.45,11.43-3.17,4.86-4.76,10.14-4.76,15.85h23.7c0-3.7,1.13-6.62,3.4-8.75,2.27-2.13,5.4-3.19,9.39-3.19,4.54,0,7.86,1.37,9.96,4.1,2.1,2.73,3.16,6.38,3.16,10.93v5.65h-10.91Zm10.91,32.34c-1.42,2.92-3.61,5.24-6.56,6.97-2.95,1.73-6.18,2.6-9.68,2.6s-6.45-1.06-8.53-3.19c-2.08-2.13-3.12-4.83-3.12-8.11l.08-1.55c.76-9.11,7.08-13.67,18.94-13.67h8.86v16.95Z"/>
      <rect class="cls-1" x="234.1" width="23.78" height="139.94"/>
      <path class="cls-1" d="M315.77,141.76c12.79,0,22.99-4.57,30.59-13.71,7.6-9.14,11.4-21.27,11.4-36.4l-.16-6.74c-.87-13.97-5.1-25.02-12.67-33.16-7.57-8.14-17.34-12.21-29.31-12.21-8.42,0-15.81,2.1-22.18,6.29-6.37,4.19-11.25,10.11-14.64,17.77-3.39,7.65-5.08,16.37-5.08,26.15v1.18c0,15.67,3.81,28.06,11.44,37.17,7.63,9.11,17.83,13.67,30.63,13.67Zm-13.61-73.47c3.17-5.02,7.65-7.53,13.45-7.53s10.39,2.53,13.61,7.57c3.22,5.05,4.84,12.17,4.84,21.35,0,10.77-1.61,18.6-4.84,23.5-3.23,4.9-7.71,7.35-13.45,7.35s-10.44-2.48-13.61-7.44c-3.17-4.96-4.76-12.12-4.76-21.49,0-10.52,1.58-18.29,4.76-23.31Z"/>
      <path class="cls-1" d="M428.52,41.36l-.98,9.29c-5.41-7.41-12.98-11.12-22.71-11.12-10.99,0-19.72,4.62-26.2,13.85-6.48,9.23-9.72,21.41-9.72,36.53v1.09c0,15.31,3.29,27.59,9.88,36.85,6.59,9.26,15.21,13.89,25.87,13.89,8.91,0,16.1-3.43,21.57-10.3v5.28c0,6.86-1.75,12.16-5.25,15.9-3.5,3.73-8.39,5.6-14.68,5.6-8.42,0-15.58-3.68-21.48-11.02l-10.5,16.03c3.17,4.56,7.84,8.28,14.02,11.16,6.18,2.88,12.52,4.33,19.02,4.33,8.58,0,16.07-1.67,22.47-5.01,6.4-3.34,11.36-8.2,14.88-14.58,3.53-6.38,5.29-13.88,5.29-22.5V41.36h-21.48Zm-2.3,70.14c-3.12,6.02-8.28,9.03-15.5,9.03-5.63,0-10.06-2.54-13.28-7.62-3.23-5.08-4.84-12.09-4.84-21.03,0-10.28,1.63-18.01,4.88-23.18,3.25-5.17,7.72-7.76,13.41-7.76,7.05,0,12.16,3.01,15.33,9.03v41.52Z"/>
      <polygon class="cls-1" points="53.4 340.15 74.57 262 95.74 340.15 120.74 340.15 149.24 215.98 120.43 215.98 105.76 295.05 85.41 215.98 63.83 215.98 43.38 294.94 28.82 215.98 0 215.98 28.51 340.15 53.4 340.15"/>
      <path class="cls-1" d="M210.8,264.3c-16.59,.08-29.28,3.63-38.06,10.67-8.78,7.04-13.17,17.14-13.17,30.3,0,10.71,3.6,19.59,10.79,26.62,7.19,7.04,16.27,10.56,27.22,10.56,11.57,0,20.97-4.48,28.2-13.43,.62,4.44,1.62,8.15,2.99,11.13h30.16v-1.95c-2.89-6.04-4.37-14.96-4.44-26.74v-53.82c0-13.92-4.05-24.73-12.14-32.42-8.09-7.69-19.02-11.53-32.79-11.53-9.09,0-17.28,1.74-24.58,5.22-7.3,3.48-12.95,8.28-16.94,14.4-3.99,6.12-5.99,12.78-5.99,19.97h29.85c0-4.67,1.43-8.34,4.29-11.02,2.86-2.68,6.8-4.02,11.83-4.02,5.71,0,9.9,1.72,12.55,5.16,2.65,3.44,3.98,8.03,3.98,13.77v7.11h-13.74Zm13.74,40.74c-1.79,3.67-4.54,6.6-8.26,8.78-3.72,2.18-7.78,3.27-12.19,3.27s-8.13-1.34-10.74-4.02c-2.62-2.68-3.92-6.08-3.92-10.21l.1-1.95c.96-11.48,8.92-17.21,23.86-17.21h11.15v21.34Z"/>
      <path class="cls-1" d="M306.44,230.79l-.83-14.8h-28.2v124.17h29.85v-81.25c3.51-8.49,10.91-12.74,22.21-12.74,3.1,0,6.68,.31,10.74,.92l.41-31.9c-2.89-.99-5.99-1.49-9.29-1.49-10.6,0-18.9,5.7-24.89,17.1Z"/>
      <path class="cls-1" d="M400.73,213.69c-10.19,0-19.26,2.66-27.21,7.98-7.95,5.32-14.1,12.89-18.44,22.72s-6.51,20.98-6.51,33.45v3.21c0,18.59,5.15,33.47,15.44,44.64,10.29,11.17,23.63,16.75,40.02,16.75,9.29,0,17.76-1.97,25.41-5.91,7.64-3.94,13.7-9.43,18.18-16.47l-14.67-18.25c-6.47,9.26-15.46,13.89-26.96,13.89-7.44,0-13.58-2.45-18.44-7.34-4.85-4.9-7.76-11.4-8.73-19.51h71.16v-13.54c0-19.66-4.39-34.85-13.17-45.56-8.78-10.71-20.81-16.07-36.1-16.07Zm19.93,52.56h-41.52c1.03-8.3,3.39-14.68,7.07-19.13,3.68-4.46,8.48-6.69,14.41-6.69,6.33,0,11.22,2.02,14.67,6.05,3.44,4.04,5.23,9.74,5.37,17.12v2.65Z"/>
    </g>
  </g>
</svg>