<?xml version="1.0" encoding="UTF-8"?>
<svg id="Layer_2" data-name="Layer 2" xmlns="http://www.w3.org/2000/svg" viewBox="0 0 450 450">
  <defs>
    <style>
      .cls-1 {
        fill: #fff;
      }

      .cls-2 {
        fill: #1e355e;
      }

      .cls-3 {
        fill: #40ae49;
      }
    </style>
  </defs>
  <g id="Layer_1-2" data-name="Layer 1">
    <g>
      <g>
        <rect class="cls-2" x="198.92" y="198.92" width="52.15" height="450" transform="translate(648.92 198.92) rotate(90)"/>
        <g>
          <path class="cls-1" d="M33.51,412.63h-9.35v28.25h-6.29v-28.25H8.65v-5.66h24.86v5.66Z"/>
          <path class="cls-1" d="M56.97,426.18h-12.07v9.08h14.17v5.61h-20.46v-33.91h20.42v5.66h-14.13v8.08h12.07v5.47Z"/>
          <path class="cls-1" d="M75.19,418.66l5.72-11.69h7.23l-8.89,16.82,9.12,17.1h-7.32l-5.87-11.88-5.87,11.88h-7.32l9.12-17.1-8.89-16.82h7.23l5.72,11.69Z"/>
          <path class="cls-1" d="M116.02,412.63h-9.35v28.25h-6.29v-28.25h-9.22v-5.66h24.86v5.66Z"/>
          <path class="cls-3" d="M164.21,412.63h-9.35v28.25h-6.29v-28.25h-9.22v-5.66h24.86v5.66Z"/>
          <path class="cls-3" d="M193.79,424.69c0,3.34-.53,6.27-1.59,8.78s-2.58,4.46-4.56,5.82c-1.98,1.37-4.24,2.05-6.8,2.05s-4.79-.68-6.77-2.03c-1.98-1.35-3.52-3.28-4.61-5.79-1.09-2.51-1.64-5.39-1.66-8.65v-1.68c0-3.34,.54-6.28,1.62-8.82,1.08-2.54,2.61-4.49,4.59-5.85,1.98-1.36,4.24-2.04,6.78-2.04s4.8,.68,6.78,2.04c1.98,1.36,3.51,3.31,4.59,5.85,1.08,2.54,1.62,5.47,1.62,8.79v1.51Zm-6.37-1.54c0-3.56-.57-6.26-1.72-8.11-1.15-1.85-2.78-2.77-4.91-2.77s-3.74,.91-4.88,2.74c-1.15,1.83-1.73,4.5-1.74,8.02v1.65c0,3.46,.57,6.15,1.72,8.06,1.15,1.91,2.79,2.87,4.95,2.87s3.73-.92,4.86-2.76c1.13-1.84,1.7-4.52,1.72-8.05v-1.65Z"/>
          <path class="cls-1" d="M226.38,431.98c0-1.32-.42-2.33-1.26-3.04-.84-.71-2.35-1.45-4.53-2.24s-3.91-1.56-5.18-2.32c-3.47-2.08-5.2-4.88-5.2-8.41,0-1.83,.46-3.47,1.39-4.9,.93-1.44,2.26-2.56,4-3.37,1.74-.81,3.69-1.21,5.86-1.21s4.12,.44,5.83,1.32c1.7,.88,3.03,2.12,3.97,3.72s1.41,3.42,1.41,5.45h-6.29c0-1.55-.44-2.76-1.32-3.62-.88-.86-2.12-1.29-3.71-1.29s-2.73,.36-3.58,1.08c-.85,.72-1.28,1.67-1.28,2.85,0,1.1,.5,2.03,1.5,2.77,1,.75,2.47,1.44,4.41,2.1,3.58,1.2,6.18,2.68,7.82,4.45,1.64,1.77,2.45,3.97,2.45,6.61,0,2.93-1,5.24-3,6.91-2,1.67-4.69,2.5-8.07,2.5-2.35,0-4.49-.48-6.42-1.43-1.93-.96-3.4-2.26-4.41-3.93-1.01-1.66-1.52-3.59-1.52-5.78h6.31c0,3.74,2.01,5.61,6.04,5.61,1.5,0,2.66-.34,3.5-1.01,.84-.68,1.26-1.62,1.26-2.83Z"/>
          <path class="cls-1" d="M263.53,424.69c0,3.34-.53,6.27-1.59,8.78s-2.58,4.46-4.56,5.82c-1.98,1.37-4.24,2.05-6.8,2.05s-4.79-.68-6.77-2.03c-1.98-1.35-3.52-3.28-4.61-5.79-1.09-2.51-1.64-5.39-1.66-8.65v-1.68c0-3.34,.54-6.28,1.62-8.82,1.08-2.54,2.61-4.49,4.59-5.85,1.98-1.36,4.24-2.04,6.78-2.04s4.8,.68,6.78,2.04c1.98,1.36,3.51,3.31,4.59,5.85,1.08,2.54,1.62,5.47,1.62,8.79v1.51Zm-6.37-1.54c0-3.56-.57-6.26-1.72-8.11-1.15-1.85-2.78-2.77-4.91-2.77s-3.74,.91-4.88,2.74c-1.15,1.83-1.73,4.5-1.74,8.02v1.65c0,3.46,.57,6.15,1.72,8.06,1.15,1.91,2.79,2.87,4.95,2.87s3.73-.92,4.86-2.76c1.13-1.84,1.7-4.52,1.72-8.05v-1.65Z"/>
          <path class="cls-1" d="M287.97,427.02h-12.07v13.86h-6.29v-33.91h19.87v5.66h-13.58v8.76h12.07v5.64Z"/>
          <path class="cls-1" d="M318.03,412.63h-9.35v28.25h-6.29v-28.25h-9.22v-5.66h24.86v5.66Z"/>
          <path class="cls-1" d="M347.21,431.1l4.11-24.13h6.27l-6.77,33.91h-6.33l-4.97-22.69-4.97,22.69h-6.33l-6.77-33.91h6.27l4.13,24.08,5.03-24.08h5.32l5.01,24.13Z"/>
          <path class="cls-1" d="M378.82,433.89h-11.03l-2.1,6.99h-6.69l11.36-33.91h5.83l11.42,33.91h-6.69l-2.12-6.99Zm-9.33-5.66h7.63l-3.84-12.69-3.79,12.69Z"/>
          <path class="cls-1" d="M403.28,428.47h-5.01v12.41h-6.29v-33.91h11.34c3.6,0,6.39,.89,8.34,2.68,1.96,1.79,2.93,4.31,2.93,7.57,0,2.31-.45,4.24-1.35,5.79-.9,1.55-2.27,2.78-4.1,3.69l6.6,13.86v.33h-6.75l-5.72-12.41Zm-5.01-5.66h5.07c1.58,0,2.8-.45,3.67-1.34,.87-.89,1.3-2.12,1.3-3.69s-.41-2.86-1.23-3.77c-.82-.92-2.07-1.37-3.76-1.37h-5.05v10.18Z"/>
          <path class="cls-1" d="M439.25,426.18h-12.07v9.08h14.17v5.61h-20.46v-33.91h20.42v5.66h-14.13v8.08h12.07v5.47Z"/>
        </g>
      </g>
      <g>
        <path class="cls-3" d="M0,89.92c0-15.37,3.1-27.61,9.31-36.72,6.2-9.11,14.69-13.67,25.46-13.67,8.64,0,15.77,3.58,21.4,10.75V0h23.78V139.94h-21.4l-1.15-10.48c-5.9,8.2-13.5,12.3-22.79,12.3-10.44,0-18.82-4.57-25.13-13.71C3.16,118.91,0,106.2,0,89.92Zm23.7,1.96c0,9.25,1.45,16.33,4.35,21.26,2.9,4.93,7.11,7.39,12.63,7.39,7.33,0,12.49-3.44,15.5-10.31v-38.96c-2.95-6.87-8.06-10.31-15.33-10.31-11.43,0-17.14,10.31-17.14,30.93Z"/>
        <path class="cls-2" d="M98.15,15.85c0-3.95,1.19-7.2,3.57-9.75,2.38-2.55,5.62-3.83,9.72-3.83s7.27,1.28,9.68,3.83c2.4,2.55,3.61,5.8,3.61,9.75s-1.22,7.29-3.65,9.84c-2.43,2.55-5.64,3.83-9.63,3.83s-7.2-1.28-9.64-3.83c-2.43-2.55-3.65-5.83-3.65-9.84Zm25.17,124.09h-23.78V41.36h23.78v98.58Z"/>
        <path class="cls-2" d="M194.25,139.94c-1.09-2.37-1.89-5.31-2.38-8.84-5.74,7.11-13.2,10.66-22.39,10.66-8.69,0-15.89-2.79-21.61-8.38-5.71-5.59-8.57-12.63-8.57-21.14,0-10.45,3.48-18.46,10.45-24.05,6.97-5.59,17.04-8.41,30.22-8.47h10.91v-5.65c0-4.55-1.05-8.2-3.16-10.93-2.11-2.73-5.43-4.1-9.96-4.1-3.99,0-7.12,1.06-9.39,3.19-2.27,2.13-3.4,5.04-3.4,8.75h-23.7c0-5.71,1.58-10.99,4.76-15.85,3.17-4.86,7.65-8.67,13.45-11.43,5.79-2.76,12.3-4.15,19.52-4.15,10.93,0,19.61,3.05,26.03,9.16,6.42,6.1,9.63,14.68,9.63,25.74v42.73c.05,9.35,1.23,16.43,3.53,21.23v1.55h-23.94Zm-19.6-18.31c3.5,0,6.72-.87,9.68-2.6,2.95-1.73,5.14-4.05,6.56-6.97v-16.95h-8.86c-11.86,0-18.18,4.55-18.94,13.67l-.08,1.55c0,3.28,1.04,5.98,3.12,8.11,2.08,2.13,4.92,3.19,8.53,3.19Z"/>
        <path class="cls-2" d="M257.88,139.94h-23.78V0h23.78V139.94Z"/>
        <path class="cls-2" d="M273.71,89.74c0-9.78,1.69-18.49,5.08-26.15,3.39-7.65,8.27-13.57,14.64-17.77,6.37-4.19,13.76-6.29,22.18-6.29,11.97,0,21.74,4.07,29.31,12.21,7.57,8.14,11.79,19.19,12.67,33.16l.16,6.74c0,15.12-3.8,27.26-11.4,36.4-7.6,9.14-17.79,13.71-30.59,13.71s-23-4.56-30.63-13.67c-7.63-9.11-11.44-21.5-11.44-37.17v-1.18Zm23.7,1.87c0,9.37,1.58,16.53,4.76,21.49,3.17,4.96,7.71,7.44,13.61,7.44s10.22-2.45,13.45-7.35c3.22-4.9,4.84-12.73,4.84-23.5,0-9.18-1.61-16.3-4.84-21.35-3.23-5.05-7.76-7.57-13.61-7.57s-10.28,2.51-13.45,7.53c-3.17,5.02-4.76,12.79-4.76,23.31Z"/>
        <path class="cls-2" d="M368.9,89.92c0-15.12,3.24-27.3,9.72-36.53,6.48-9.23,15.21-13.85,26.2-13.85,9.73,0,17.3,3.71,22.71,11.12l.98-9.29h21.48v95.3c0,8.62-1.76,16.13-5.29,22.5-3.53,6.38-8.49,11.24-14.88,14.58-6.4,3.34-13.89,5.01-22.47,5.01-6.51,0-12.85-1.44-19.02-4.33-6.18-2.89-10.85-6.6-14.02-11.16l10.5-16.03c5.9,7.35,13.06,11.02,21.48,11.02,6.29,0,11.18-1.87,14.68-5.6,3.5-3.74,5.25-9.04,5.25-15.9v-5.28c-5.47,6.86-12.66,10.3-21.57,10.3-10.66,0-19.28-4.63-25.87-13.89-6.59-9.26-9.88-21.55-9.88-36.85v-1.09Zm23.7,1.96c0,8.94,1.61,15.95,4.84,21.03,3.22,5.08,7.65,7.62,13.28,7.62,7.22,0,12.38-3.01,15.5-9.03v-41.52c-3.17-6.02-8.28-9.03-15.33-9.03-5.69,0-10.16,2.59-13.41,7.76-3.25,5.17-4.88,12.9-4.88,23.18Z"/>
      </g>
      <g>
        <path class="cls-3" d="M105.76,295.05l14.67-79.07h28.82l-28.51,124.17h-24.99l-21.17-78.15-21.17,78.15H28.51L0,215.98H28.82l14.56,78.95,20.45-78.95h21.59l20.35,79.07Z"/>
        <path class="cls-2" d="M228.77,340.15c-1.38-2.98-2.38-6.69-2.99-11.13-7.23,8.95-16.63,13.43-28.2,13.43-10.95,0-20.02-3.52-27.21-10.56-7.2-7.04-10.79-15.91-10.79-26.62,0-13.16,4.39-23.26,13.17-30.3,8.78-7.04,21.46-10.6,38.06-10.67h13.74v-7.11c0-5.74-1.33-10.33-3.98-13.77-2.65-3.44-6.83-5.16-12.55-5.16-5.03,0-8.97,1.34-11.83,4.02-2.86,2.68-4.29,6.35-4.29,11.02h-29.85c0-7.19,2-13.85,5.99-19.97,3.99-6.12,9.64-10.92,16.94-14.4,7.3-3.48,15.49-5.22,24.58-5.22,13.77,0,24.7,3.84,32.79,11.53,8.09,7.69,12.14,18.5,12.14,32.42v53.82c.07,11.78,1.55,20.7,4.44,26.74v1.95h-30.16Zm-24.68-23.07c4.41,0,8.47-1.09,12.19-3.27,3.72-2.18,6.47-5.11,8.26-8.78v-21.34h-11.15c-14.94,0-22.89,5.74-23.86,17.21l-.1,1.95c0,4.13,1.31,7.54,3.93,10.21,2.62,2.68,6.2,4.02,10.74,4.02Z"/>
        <path class="cls-2" d="M340.21,247.08c-4.06-.61-7.64-.92-10.74-.92-11.29,0-18.69,4.25-22.21,12.74v81.25h-29.85v-124.17h28.2l.83,14.8c5.99-11.4,14.29-17.1,24.89-17.1,3.3,0,6.4,.5,9.29,1.49l-.41,31.9Z"/>
        <path class="cls-2" d="M404.04,342.45c-16.39,0-29.73-5.58-40.02-16.75-10.29-11.17-15.44-26.05-15.44-44.64v-3.21c0-12.47,2.17-23.62,6.51-33.45,4.34-9.83,10.48-17.4,18.44-22.72,7.95-5.32,17.02-7.98,27.21-7.98,15.29,0,27.32,5.36,36.1,16.07,8.78,10.71,13.17,25.9,13.17,45.56v13.54h-71.16c.96,8.11,3.87,14.61,8.73,19.51,4.85,4.9,11,7.34,18.44,7.34,11.5,0,20.48-4.63,26.96-13.89l14.67,18.25c-4.48,7.04-10.53,12.53-18.18,16.47-7.64,3.94-16.11,5.91-25.41,5.91Zm-3.41-102.02c-5.92,0-10.72,2.23-14.41,6.69-3.68,4.46-6.04,10.84-7.08,19.13h41.52v-2.65c-.14-7.38-1.93-13.08-5.37-17.12-3.44-4.03-8.33-6.05-14.67-6.05Z"/>
      </g>
    </g>
  </g>
</svg>