<?xml version="1.0" encoding="UTF-8"?>
<svg id="Layer_2" data-name="Layer 2" xmlns="http://www.w3.org/2000/svg" viewBox="0 0 276 95.3">
  <defs>
    <style>
      .cls-1 {
        fill: #fff;
      }

      .cls-2 {
        fill: #1e355e;
      }

      .cls-3 {
        fill: #40ae49;
      }
    </style>
  </defs>
  <g id="Layer_1-2" data-name="Layer 1">
    <g>
      <g>
        <path class="cls-3" d="M0,30.32c0-5.18,1.05-9.31,3.14-12.38s4.95-4.61,8.58-4.61c2.91,0,5.32,1.21,7.22,3.62V0h8.02V47.18h-7.22l-.39-3.53c-1.99,2.76-4.55,4.15-7.69,4.15-3.52,0-6.34-1.54-8.47-4.62-2.13-3.08-3.19-7.37-3.19-12.85Zm7.99,.66c0,3.12,.49,5.51,1.47,7.17,.98,1.66,2.39,2.49,4.26,2.49,2.47,0,4.21-1.16,5.23-3.48v-13.14c-1-2.32-2.72-3.48-5.17-3.48-3.85,0-5.78,3.48-5.78,10.43Z"/>
        <path class="cls-2" d="M33.09,5.34c0-1.33,.4-2.43,1.2-3.29,.8-.86,1.89-1.29,3.28-1.29s2.45,.43,3.26,1.29c.81,.86,1.22,1.96,1.22,3.29s-.41,2.46-1.23,3.32c-.82,.86-1.9,1.29-3.25,1.29s-2.43-.43-3.25-1.29c-.82-.86-1.23-1.97-1.23-3.32Zm8.49,41.84h-8.02V13.95h8.02V47.18Z"/>
        <path class="cls-2" d="M65.49,47.18c-.37-.8-.64-1.79-.8-2.98-1.93,2.4-4.45,3.59-7.55,3.59-2.93,0-5.36-.94-7.28-2.83-1.93-1.88-2.89-4.26-2.89-7.13,0-3.52,1.18-6.23,3.52-8.11,2.35-1.88,5.75-2.83,10.19-2.86h3.68v-1.9c0-1.54-.35-2.76-1.06-3.69-.71-.92-1.83-1.38-3.36-1.38-1.35,0-2.4,.36-3.17,1.07s-1.15,1.7-1.15,2.95h-7.99c0-1.92,.53-3.71,1.6-5.34s2.58-2.92,4.53-3.85,4.15-1.4,6.58-1.4c3.69,0,6.61,1.03,8.78,3.09,2.17,2.06,3.25,4.95,3.25,8.68v14.41c.02,3.15,.41,5.54,1.19,7.16v.52h-8.07Zm-6.61-6.17c1.18,0,2.27-.29,3.26-.88,.99-.58,1.73-1.37,2.21-2.35v-5.71h-2.99c-4,0-6.13,1.54-6.39,4.61l-.03,.52c0,1.11,.35,2.02,1.05,2.73,.7,.72,1.66,1.08,2.88,1.08Z"/>
        <path class="cls-2" d="M86.94,47.18h-8.02V0h8.02V47.18Z"/>
        <path class="cls-2" d="M92.28,30.25c0-3.3,.57-6.24,1.71-8.81,1.14-2.58,2.79-4.58,4.93-5.99s4.64-2.12,7.48-2.12c4.04,0,7.33,1.37,9.88,4.12,2.55,2.74,3.98,6.47,4.27,11.18l.06,2.27c0,5.1-1.28,9.19-3.84,12.27-2.56,3.08-6,4.62-10.31,4.62s-7.75-1.54-10.32-4.61-3.86-7.25-3.86-12.53v-.4Zm7.99,.63c0,3.16,.53,5.57,1.6,7.24s2.6,2.51,4.59,2.51,3.45-.83,4.53-2.48c1.09-1.65,1.63-4.29,1.63-7.92,0-3.1-.54-5.5-1.63-7.2-1.09-1.7-2.62-2.55-4.59-2.55s-3.46,.85-4.53,2.54c-1.07,1.69-1.6,4.31-1.6,7.86Z"/>
        <path class="cls-2" d="M124.37,30.32c0-5.1,1.09-9.2,3.28-12.32,2.18-3.11,5.13-4.67,8.83-4.67,3.28,0,5.83,1.25,7.66,3.75l.33-3.13h7.24V46.07c0,2.91-.59,5.44-1.78,7.59-1.19,2.15-2.86,3.79-5.02,4.92-2.16,1.13-4.68,1.69-7.57,1.69-2.19,0-4.33-.49-6.41-1.46-2.08-.97-3.66-2.23-4.73-3.76l3.54-5.41c1.99,2.48,4.4,3.72,7.24,3.72,2.12,0,3.77-.63,4.95-1.89,1.18-1.26,1.77-3.05,1.77-5.36v-1.78c-1.84,2.31-4.27,3.47-7.27,3.47-3.59,0-6.5-1.56-8.72-4.68-2.22-3.12-3.33-7.26-3.33-12.42v-.37Zm7.99,.66c0,3.01,.54,5.38,1.63,7.09s2.58,2.57,4.48,2.57c2.43,0,4.17-1.02,5.23-3.05v-14c-1.07-2.03-2.79-3.05-5.17-3.05-1.92,0-3.42,.87-4.52,2.61-1.1,1.74-1.64,4.35-1.64,7.81Z"/>
        <path class="cls-3" d="M183.86,35.11l3.93-21.16h7.71l-7.63,33.23h-6.69l-5.67-20.92-5.67,20.92h-6.66l-7.63-33.23h7.71l3.9,21.13,5.47-21.13h5.78l5.45,21.16Z"/>
        <path class="cls-2" d="M216.79,47.18c-.37-.8-.64-1.79-.8-2.98-1.93,2.4-4.45,3.59-7.55,3.59-2.93,0-5.36-.94-7.28-2.83-1.93-1.88-2.89-4.26-2.89-7.13,0-3.52,1.18-6.23,3.52-8.11,2.35-1.88,5.75-2.83,10.19-2.86h3.68v-1.9c0-1.54-.35-2.76-1.06-3.69-.71-.92-1.83-1.38-3.36-1.38-1.35,0-2.4,.36-3.17,1.07s-1.15,1.7-1.15,2.95h-7.99c0-1.92,.53-3.71,1.6-5.34s2.58-2.92,4.53-3.85,4.15-1.4,6.58-1.4c3.69,0,6.61,1.03,8.78,3.09,2.17,2.06,3.25,4.95,3.25,8.68v14.41c.02,3.15,.41,5.54,1.19,7.16v.52h-8.07Zm-6.61-6.17c1.18,0,2.27-.29,3.26-.88,.99-.58,1.73-1.37,2.21-2.35v-5.71h-2.99c-4,0-6.13,1.54-6.39,4.61l-.03,.52c0,1.11,.35,2.02,1.05,2.73,.7,.72,1.66,1.08,2.88,1.08Z"/>
        <path class="cls-2" d="M246.61,22.27c-1.09-.16-2.05-.25-2.88-.25-3.02,0-5,1.14-5.94,3.41v21.75h-7.99V13.95h7.55l.22,3.96c1.6-3.05,3.82-4.58,6.66-4.58,.88,0,1.71,.13,2.49,.4l-.11,8.54Z"/>
        <path class="cls-2" d="M263.7,47.79c-4.39,0-7.96-1.49-10.71-4.48-2.75-2.99-4.13-6.97-4.13-11.95v-.86c0-3.34,.58-6.32,1.74-8.95,1.16-2.63,2.81-4.66,4.93-6.08s4.56-2.13,7.28-2.13c4.09,0,7.31,1.43,9.66,4.3,2.35,2.87,3.52,6.93,3.52,12.19v3.62h-19.05c.26,2.17,1.04,3.91,2.34,5.22,1.3,1.31,2.94,1.97,4.93,1.97,3.08,0,5.48-1.24,7.22-3.72l3.93,4.88c-1.2,1.88-2.82,3.35-4.87,4.41-2.04,1.05-4.31,1.58-6.8,1.58Zm-.91-27.31c-1.59,0-2.87,.6-3.86,1.79s-1.62,2.9-1.89,5.12h11.11v-.71c-.04-1.97-.52-3.5-1.44-4.58-.92-1.08-2.23-1.62-3.93-1.62Z"/>
      </g>
      <g>
        <rect class="cls-2" x="121.61" y="-59.09" width="32.78" height="276" transform="translate(216.91 -59.09) rotate(90)"/>
        <g>
          <path class="cls-1" d="M21.31,71.44h-6.19v18.7h-4.16v-18.7H4.86v-3.75H21.31v3.75Z"/>
          <path class="cls-1" d="M35.84,80.41h-7.99v6.01h9.38v3.71h-13.54v-22.44h13.51v3.75h-9.35v5.35h7.99v3.62Z"/>
          <path class="cls-1" d="M46.89,75.43l3.79-7.74h4.79l-5.88,11.13,6.03,11.31h-4.84l-3.88-7.86-3.88,7.86h-4.84l6.03-11.31-5.88-11.13h4.79l3.79,7.74Z"/>
          <path class="cls-1" d="M72.91,71.44h-6.19v18.7h-4.16v-18.7h-6.1v-3.75h16.45v3.75Z"/>
          <path class="cls-3" d="M96.73,71.44h-6.19v18.7h-4.16v-18.7h-6.1v-3.75h16.45v3.75Z"/>
          <path class="cls-3" d="M115.31,79.42c0,2.21-.35,4.15-1.05,5.81-.7,1.66-1.71,2.95-3.02,3.85-1.31,.9-2.81,1.36-4.5,1.36s-3.17-.45-4.48-1.34c-1.31-.89-2.33-2.17-3.05-3.83-.72-1.66-1.09-3.57-1.1-5.73v-1.11c0-2.21,.36-4.15,1.07-5.83s1.73-2.97,3.04-3.87c1.31-.9,2.8-1.35,4.49-1.35s3.18,.45,4.49,1.35c1.31,.9,2.32,2.19,3.04,3.87s1.07,3.62,1.07,5.82v1Zm-4.22-1.02c0-2.35-.38-4.14-1.14-5.36-.76-1.22-1.84-1.83-3.25-1.83s-2.47,.6-3.23,1.81c-.76,1.21-1.14,2.98-1.15,5.31v1.09c0,2.29,.38,4.07,1.14,5.33,.76,1.26,1.85,1.9,3.27,1.9s2.47-.61,3.22-1.83,1.13-2.99,1.14-5.33v-1.09Z"/>
          <path class="cls-1" d="M135.88,84.25c0-.87-.28-1.54-.83-2.01-.55-.47-1.55-.96-3-1.48s-2.58-1.03-3.43-1.53c-2.29-1.38-3.44-3.23-3.44-5.56,0-1.21,.31-2.29,.92-3.24,.61-.95,1.5-1.69,2.65-2.23,1.15-.53,2.44-.8,3.88-.8s2.73,.29,3.86,.87,2,1.4,2.63,2.46c.62,1.06,.94,2.26,.94,3.61h-4.16c0-1.03-.29-1.83-.87-2.4-.58-.57-1.4-.86-2.46-.86s-1.81,.24-2.37,.72c-.56,.48-.85,1.11-.85,1.89,0,.73,.33,1.34,.99,1.83,.66,.49,1.64,.96,2.92,1.39,2.37,.79,4.09,1.77,5.17,2.94,1.08,1.17,1.62,2.63,1.62,4.38,0,1.94-.66,3.47-1.98,4.57-1.32,1.1-3.1,1.66-5.34,1.66-1.55,0-2.97-.32-4.24-.95-1.28-.63-2.25-1.5-2.92-2.6-.67-1.1-1.01-2.37-1.01-3.82h4.18c0,2.48,1.33,3.71,4,3.71,.99,0,1.76-.22,2.32-.67s.83-1.07,.83-1.87Z"/>
          <path class="cls-1" d="M159.46,79.42c0,2.21-.35,4.15-1.05,5.81-.7,1.66-1.71,2.95-3.02,3.85-1.31,.9-2.81,1.36-4.5,1.36s-3.17-.45-4.48-1.34c-1.31-.89-2.33-2.17-3.05-3.83-.72-1.66-1.09-3.57-1.1-5.73v-1.11c0-2.21,.36-4.15,1.07-5.83s1.73-2.97,3.04-3.87c1.31-.9,2.8-1.35,4.49-1.35s3.18,.45,4.49,1.35c1.31,.9,2.32,2.19,3.04,3.87s1.07,3.62,1.07,5.82v1Zm-4.22-1.02c0-2.35-.38-4.14-1.14-5.36-.76-1.22-1.84-1.83-3.25-1.83s-2.47,.6-3.23,1.81c-.76,1.21-1.14,2.98-1.15,5.31v1.09c0,2.29,.38,4.07,1.14,5.33,.76,1.26,1.85,1.9,3.27,1.9s2.47-.61,3.22-1.83,1.13-2.99,1.14-5.33v-1.09Z"/>
          <path class="cls-1" d="M174.63,80.96h-7.99v9.17h-4.16v-22.44h13.15v3.75h-8.99v5.8h7.99v3.73Z"/>
          <path class="cls-1" d="M193.53,71.44h-6.19v18.7h-4.16v-18.7h-6.1v-3.75h16.45v3.75Z"/>
          <path class="cls-1" d="M211.84,83.66l2.72-15.97h4.15l-4.48,22.44h-4.19l-3.29-15.01-3.29,15.01h-4.19l-4.48-22.44h4.15l2.73,15.94,3.33-15.94h3.52l3.32,15.97Z"/>
          <path class="cls-1" d="M231.76,85.51h-7.3l-1.39,4.62h-4.43l7.52-22.44h3.86l7.56,22.44h-4.43l-1.4-4.62Zm-6.17-3.75h5.05l-2.54-8.4-2.51,8.4Z"/>
          <path class="cls-1" d="M246.95,81.92h-3.32v8.22h-4.16v-22.44h7.5c2.39,0,4.23,.59,5.52,1.77,1.29,1.18,1.94,2.85,1.94,5.01,0,1.53-.3,2.81-.89,3.83s-1.5,1.84-2.71,2.44l4.37,9.17v.22h-4.47l-3.79-8.22Zm-3.32-3.75h3.36c1.04,0,1.85-.3,2.43-.89,.57-.59,.86-1.4,.86-2.44s-.27-1.89-.81-2.5c-.54-.61-1.37-.91-2.49-.91h-3.34v6.74Z"/>
          <path class="cls-1" d="M269.75,80.41h-7.99v6.01h9.38v3.71h-13.54v-22.44h13.51v3.75h-9.35v5.35h7.99v3.62Z"/>
        </g>
      </g>
    </g>
  </g>
</svg>